<?xml version="1.0" standalone="no"?> <!DOCTYPE svg PUBLIC "-//W3C//DTD SVG 1.0//EN" "http://www.w3.org/TR/2001/REC-SVG-20010904/DTD/svg10.dtd" > <svg xmlns="http://www.w3.org/2000/svg" width="100%" height="100%">
<defs >
<font horiz-adv-x="941" ><font-face
    font-family="Evenings Bold"
    units-per-em="2048"
    panose-1="2 0 6 0 0 0 0 0 0 0"
    ascent="1763"
    descent="-572"
    alphabetic="0" />
<missing-glyph horiz-adv-x="1024" />
<glyph unicode=" " glyph-name="space" horiz-adv-x="508" />
<glyph unicode="!" glyph-name="exclam" horiz-adv-x="421" d="M214 199L44 1319Q42 1337 42 1353Q42 1414 69 1457T137 1522T215 1545Q253 1545 292 1523T359 1458T386 1357Q386 1341 384 1324L214 199ZM214 -22Q178 -22 151 5T124 66Q124 99 151 127T214 155Q250
155 277 127T304 66Q304 33 277 6T214 -22Z" />
<glyph unicode="&quot;" glyph-name="quotedbl" horiz-adv-x="504" d="M126 1097L28 1417Q23 1434 23 1447Q23 1477 41 1499T83 1533T127 1545Q146 1545 170 1533T211 1500T228 1450Q228 1436 223 1420L126 1097ZM379 1097L281 1417Q276 1434 276 1447Q276 1477
294 1499T336 1533T380 1545Q399 1545 423 1533T464 1500T481 1450Q481 1436 476 1420L379 1097Z" />
<glyph unicode="#" glyph-name="numbersign" horiz-adv-x="1624" d="M1345 -22H769V54Q839 54 877 83T935 163T963 282L970 329H528L522 293Q512 237 512 183Q512 141 521 112T558 69T640 54V-22H63V54Q133 54 171 83T229 163T257 283L264 329H23V405H276L380
1097H136V1173H391L397 1207Q407 1264 407 1318Q407 1360 398 1389T361 1432T279 1447V1523H855V1447Q786 1447 748 1418T690 1338T661 1218L654 1173H1097L1104 1219Q1113 1269 1113 1319Q1113 1361 1103 1389T1066 1432T985 1447V1523H1561V1447Q1491 1447 1453
1418T1395 1338T1367 1218L1360 1173H1601V1097H1349L1245 405H1488V329H1233L1226 282Q1217 231 1217 181Q1217 139 1226 111T1263 69T1345 54V-22ZM981 405L1085 1097H643L539 405H981Z" />
<glyph unicode="$" glyph-name="dollar" horiz-adv-x="965" d="M525 -200H439V-41Q344 -36 223 37Q200 51 183 59T151 68Q130 68 120 51T110 -22H23V496H106Q157 183 314 82Q397 33 439 33V622Q402 651 363 680Q301 725 241 774T132 882T53 1016T23 1184Q23 1282
76 1364T229 1496T464 1545L439 1546V1701H525V1543Q620 1537 741 1465Q764 1451 781 1443T813 1434Q835 1434 844 1451T854 1523H942V1005H859Q808 1318 651 1420Q567 1469 525 1469V879L602 821Q663 777 723 728T832 619T912 486T942 317Q942 219 889 137T736
6T500 -44H525V-200ZM439 949V1466Q377 1459 333 1404T289 1261Q289 1182 312 1122T370 1019T439 949ZM525 36Q587 42 631 97T676 241Q676 319 652 379T594 482T525 552V36Z" />
<glyph unicode="%" glyph-name="percent" horiz-adv-x="1294" d="M319 780Q238 780 182 814T90 905T39 1028T23 1163Q23 1230 39 1297T90 1420T181 1510T319 1545Q400 1545 456 1511T548 1420T599 1297T615 1163Q615 1095 599 1028T548 905T457 815T319 780ZM975
-44Q894 -44 838 -10T746 81T695 204T679 339Q679 406 695 473T746 596T837 687T975 722Q1056 722 1112 688T1204 597T1255 473T1271 339Q1271 272 1255 205T1204 81T1113 -9T975 -44ZM975 32Q1023 32 1041 111T1060 339Q1060 487 1042 566T975 646Q926 646 908
567T889 339Q889 190 907 111T975 32ZM319 856Q367 856 385 935T404 1163Q404 1311 386 1390T319 1469Q270 1469 252 1391T233 1163Q233 1013 251 935T319 856ZM276 -22H183L1017 1523H1110L276 -22Z" />
<glyph unicode="&amp;" glyph-name="ampersand" horiz-adv-x="1367" d="M596 141Q708 141 747 216Q644 385 392 822Q323 777 285 693T246 513Q246 416 286 332T405 194T596 141ZM583 1043Q610 1071 632 1146T655 1301Q655 1376 634 1422T568 1469Q534 1469 507
1437T480 1329Q480 1277 498 1223T539 1122T583 1043ZM437 -44Q304 -44 212 14T72 165T23 366Q24 513 108 656T357 894Q238 1084 238 1259Q238 1396 346 1475Q442 1545 567 1545Q661 1545 726 1514T824 1432T858 1320Q858 1229 797 1130T624 966Q635 945 762 718T895
482Q905 508 917 589Q923 628 923 668Q923 752 886 785T741 818V894H1202V818Q1122 818 1085 792T1032 719T1008 607Q989 488 951 389Q1032 251 1070 199Q1115 136 1180 95T1344 54V-22H745V54Q785 54 793 60T802 86Q802 117 795 131Q747 57 650 7T437 -44Z" />
<glyph unicode="&apos;" glyph-name="quotesingle" horiz-adv-x="251" d="M126 1097L28 1417Q23 1434 23 1447Q23 1477 41 1499T83 1533T127 1545Q146 1545 170 1533T211 1500T228 1450Q228 1436 223 1420L126 1097Z" />
<glyph unicode="(" glyph-name="parenleft" horiz-adv-x="623" d="M546 -198Q352 -198 225 -23Q117 126 65 362Q23 558 23 745Q23 933 65 1131Q116 1371 223 1521Q350 1699 546 1699Q483 1699 438 1645T362 1497T313 1282T288 1024T280 750Q280 253 362 4Q428
-198 546 -198Z" />
<glyph unicode=")" glyph-name="parenright" horiz-adv-x="623" d="M77 -198Q140 -198 185 -144T261 3T309 218T334 475T342 750Q342 1248 261 1497Q196 1699 77 1699Q272 1699 399 1521Q507 1371 558 1131Q600 933 600 745Q600 558 557 362Q506 126 398 -23Q271
-198 77 -198Z" />
<glyph unicode="*" glyph-name="asterisk" horiz-adv-x="397" d="M265 1187Q233 1187 224 1225L198 1339L173 1225Q164 1187 132 1187Q109 1187 86 1206T63 1249Q63 1270 90 1288L186 1344L67 1336Q43 1336 33 1349T23 1381Q23 1404 38 1426T75 1449Q91 1449 109
1434L190 1358L147 1460Q141 1474 141 1485Q141 1507 159 1518T199 1529Q221 1529 238 1518T256 1486Q256 1475 251 1463L207 1359L288 1434Q306 1449 322 1449Q344 1449 359 1427T374 1380Q374 1363 364 1350T331 1336L211 1344L307 1288Q333 1270 333 1249Q333
1226 311 1207T265 1187Z" />
<glyph unicode="+" glyph-name="plus" horiz-adv-x="654" d="M370 452H284V713H23V789H284V1049H370V789H631V713H370V452Z" />
<glyph unicode="," glyph-name="comma" horiz-adv-x="227" d="M81 -156L33 -103Q74 -66 113 -22Q77 -22 50 5T23 66Q23 106 52 130T114 155Q146 155 175 132T204 67Q204 8 170 -53T81 -156Z" />
<glyph unicode="-" glyph-name="hyphen" horiz-adv-x="507" d="M484 470H23V546H484V470Z" />
<glyph unicode="." glyph-name="period" horiz-adv-x="226" d="M113 -22Q77 -22 50 5T23 66Q23 99 50 127T113 155Q149 155 176 127T203 66Q203 33 176 6T113 -22Z" />
<glyph unicode="/" glyph-name="slash" horiz-adv-x="682" d="M104 -22H14L577 1523H668L104 -22Z" />
<glyph unicode="0" glyph-name="zero" horiz-adv-x="1078" d="M539 -44Q397 -44 299 22T139 201T51 455T23 751Q23 904 50 1046T139 1300T298 1479T539 1545Q681 1545 779 1479T939 1301T1027 1046T1055 751Q1055 597 1028 456T939 202T780 23T539 -44ZM539 32Q639
32 695 115T773 358T796 751Q796 983 774 1143T695 1386T539 1469Q440 1469 384 1387T304 1144Q282 990 282 770V732Q282 511 305 355T384 115T539 32Z" />
<glyph unicode="1" glyph-name="one" horiz-adv-x="619" d="M596 -22H23V54Q92 54 125 82T169 162T180 280V1098Q180 1165 170 1215T126 1294T23 1323V1392L439 1534V280Q439 213 449 162T493 83T596 54V-22Z" />
<glyph unicode="2" glyph-name="two" horiz-adv-x="1028" d="M1005 -22H23V13Q23 107 55 194T141 363T262 524T399 679Q487 774 564 869T691 1061T740 1261Q740 1354 685 1411T537 1469Q458 1469 380 1421Q220 1319 170 1005H87V1523H174Q174 1469 183 1452T215
1434Q230 1434 247 1442T286 1464T338 1493Q438 1545 564 1545Q700 1545 799 1496T951 1364T1005 1184Q1005 1087 971 996T879 818T752 650T610 490Q503 375 419 267T306 54H647Q713 54 763 93T848 196T901 338T919 496H1005V-22Z" />
<glyph unicode="3" glyph-name="three" horiz-adv-x="1061" d="M500 -44Q376 -44 276 7Q246 23 223 37T183 59T151 68Q130 68 121 51T111 -22H23V496H106Q157 183 314 82Q394 32 474 32Q574 32 642 90T744 241T778 435Q778 522 755 599T684 725T564 774L355 776V852H533Q590
852 628 896T685 1010T704 1156Q704 1237 679 1309T602 1425T474 1469Q394 1469 314 1420Q157 1318 106 1005H23V1523H111Q111 1469 120 1452T151 1434Q166 1434 183 1442T223 1464T276 1494Q376 1545 500 1545Q620 1545 708 1512T854 1422T940 1296T968 1156Q968
1045 914 948T791 822Q892 794 965 678T1038 427Q1038 343 1006 259T909 107T742 -2T500 -44Z" />
<glyph unicode="4" glyph-name="four" horiz-adv-x="1127" d="M1104 -22H532V54Q600 54 633 82T677 162T688 280V362H2L865 1523H947V438H1043V362H947V280Q947 213 957 162T1001 83T1104 54V-22ZM688 438V1150L154 438H688Z" />
<glyph unicode="5" glyph-name="five" horiz-adv-x="1053" d="M500 -44Q374 -44 274 8Q243 25 221 38T182 59T151 68Q130 68 120 50T110 -22H23V496H106Q156 184 316 80Q394 32 473 32Q565 32 632 93T737 251T774 456Q770 659 672 758T420 859Q292 859 146 784L78
788L159 1523H911V1005H825Q825 1108 796 1166T706 1249T553 1273H217L175 885Q218 908 298 925T466 942Q573 942 673 912T854 821T982 670T1030 458Q1030 366 995 277T893 115T727 0T500 -44Z" />
<glyph unicode="6" glyph-name="six" horiz-adv-x="1003" d="M571 -44Q446 -44 354 7T199 143T97 332T41 545T23 751Q23 847 40 956T96 1170T198 1358T354 1494T571 1545Q714 1545 827 1452Q844 1438 849 1438L851 1439Q856 1444 856 1523H944V1005H861Q840 1156
806 1259T718 1416T576 1469Q505 1469 456 1431T374 1331T323 1197T295 1054T284 930T282 849Q288 861 326 887T427 936T571 960Q676 960 753 916T880 800T955 639T980 458Q980 367 956 279T882 117T755 0T571 -44ZM574 32Q649 35 685 146T721 458Q721 660 685
772T571 884Q494 884 458 772T421 458Q421 424 423 371T432 260T456 150T500 65T571 32H574Z" />
<glyph unicode="7" glyph-name="seven" horiz-adv-x="966" d="M407 -22H109L740 1273H381Q289 1273 229 1249T139 1167T109 1005H23V1523H952L407 -22Z" />
<glyph unicode="8" glyph-name="eight" horiz-adv-x="1134" d="M567 852Q621 852 669 884T747 983T777 1156Q777 1234 754 1306T684 1423T567 1469Q497 1469 450 1424T380 1306T356 1156Q356 1050 386 983T464 884T567 852ZM567 32Q637 32 690 67T779 160T833
290T851 435Q851 553 810 628T704 740T567 776Q494 776 429 740T323 628T282 435Q282 362 300 290T354 160T443 67T567 32ZM567 -44Q459 -44 361 -14T187 75T67 223T23 427Q23 562 96 678T270 822Q200 850 146 947T92 1156Q92 1256 132 1329T241 1450T393 1521T567
1545Q655 1545 740 1522T893 1450T1001 1329T1041 1156Q1041 1045 987 948T864 822Q965 794 1038 678T1111 427Q1111 311 1067 223T947 76T773 -14T567 -44Z" />
<glyph unicode="9" glyph-name="nine" horiz-adv-x="1003" d="M432 -44Q365 -44 315 -27T230 12T178 49T154 64Q150 64 149 43Q147 14 147 -22H59V496H142Q164 345 197 242T285 85T427 32Q557 32 630 171Q686 279 708 448Q721 551 721 637V652Q715 640 678 614T577
565T432 542Q327 542 250 585T123 701T48 862T23 1044Q23 1135 47 1223T121 1384T248 1501T432 1545Q557 1545 649 1494T804 1359T907 1170T963 957T980 751Q980 654 963 545T907 332T805 143T649 7T432 -44ZM432 618Q509 618 545 729T582 1044Q582 1077 580 1130T571
1241T548 1351T504 1436T432 1469Q282 1466 282 1044Q282 841 318 730T432 618Z" />
<glyph unicode=":" glyph-name="colon" horiz-adv-x="326" d="M163 -22Q127 -22 100 5T73 66Q73 99 100 127T163 155Q199 155 226 127T253 66Q253 33 226 6T163 -22ZM163 1049Q127 1049 100 1076T73 1137Q73 1170 100 1197T163 1225Q199 1225 226 1198T253 1137Q253
1104 226 1077T163 1049Z" />
<glyph unicode=";" glyph-name="semicolon" horiz-adv-x="327" d="M164 1049Q128 1049 101 1076T74 1137Q74 1170 101 1197T164 1225Q200 1225 227 1198T254 1137Q254 1104 227 1077T164 1049ZM130 -156L82 -103Q123 -66 162 -22Q126 -22 99 5T72 66Q72 106 101
130T163 155Q195 155 224 132T253 67Q253 8 219 -53T130 -156Z" />
<glyph unicode="&lt;" glyph-name="less" horiz-adv-x="595" d="M540 427L23 726V776L540 1074L579 1006L136 751L579 495L540 427Z" />
<glyph unicode="=" glyph-name="equal" horiz-adv-x="653" d="M630 783H23V859H630V783ZM630 642H23V718H630V642Z" />
<glyph unicode="&gt;" glyph-name="greater" horiz-adv-x="595" d="M55 427L16 495L459 751L16 1006L55 1074L572 776V726L55 427Z" />
<glyph unicode="?" glyph-name="question" horiz-adv-x="965" d="M401 198Q365 282 354 331T343 413Q343 478 368 549T431 695T511 844T591 990T652 1130T676 1261Q676 1355 621 1412T474 1469Q393 1469 315 1421Q157 1318 106 1005H23V1523H111Q111 1469 120
1452T152 1434Q167 1434 184 1443T224 1465T274 1493Q375 1545 501 1545Q637 1545 736 1496T888 1364T942 1184Q942 1077 898 979T786 791T645 614Q552 507 482 404T401 198ZM399 -22Q363 -22 336 6T309 67Q309 100 336 127T399 155Q435 155 462 128T489 67Q489
34 462 6T399 -22Z" />
<glyph unicode="@" glyph-name="at" horiz-adv-x="1346" d="M571 234Q645 234 697 380Q709 411 733 513Q769 666 769 737Q769 778 761 791T735 805Q710 805 675 774T601 678Q511 513 511 358Q511 234 571 234ZM608 -139Q460 -139 350 -91T168 38T59 222T23 434Q23
562 69 689T205 922T427 1091T732 1155Q886 1155 997 1101T1180 960T1287 767T1323 556Q1323 445 1284 346T1169 185T985 122Q920 122 862 150Q785 187 751 250L722 218Q634 127 511 127Q439 127 393 159T325 243T303 353Q304 440 338 533T435 706T584 838T776
889Q818 889 863 871T940 818T972 738Q965 654 942 424Q935 380 935 335Q935 279 953 244T1029 208Q1092 208 1138 254T1209 379T1235 553Q1235 764 1117 911Q982 1079 728 1079Q577 1079 462 1024T269 877T152 672T112 442Q112 229 234 90Q367 -63 611 -63Q713
-63 832 -21L864 -90Q728 -139 608 -139Z" />
<glyph unicode="A" glyph-name="A" horiz-adv-x="1088" d="M1163 -22H590V54Q657 54 675 72T694 131Q694 190 667 275L630 401H261L225 275Q200 197 200 140Q200 87 223 71T330 54V-22H-111V54H-64Q-7 54 31 83T94 165T138 285L498 1523H574L933 285Q952 217 978
165T1048 84T1163 54V-22ZM608 477L446 1036L284 477H608Z" />
<glyph unicode="B" glyph-name="B" horiz-adv-x="1091" d="M579 54Q660 54 714 105T795 238T822 416Q822 515 796 596T718 725T585 774H453V54H579ZM653 -22H37V54Q106 54 139 82T183 162T194 280V1221Q194 1288 183 1339T139 1418T37 1447V1523H626Q747 1523
832 1470T961 1336T1006 1166Q1006 1055 959 954T837 822Q940 793 1010 677T1081 426Q1081 345 1055 266T975 121T842 17T653 -22ZM576 852Q634 852 672 893T730 1001T749 1146Q749 1224 726 1293T660 1404T552 1447H453V852H576Z" />
<glyph unicode="C" glyph-name="C" horiz-adv-x="1116" d="M565 -44Q440 -44 348 7T193 142T91 331T35 545T17 751Q17 847 34 956T90 1170T192 1358T348 1494T565 1545Q631 1545 680 1530T765 1494T828 1453Q848 1437 864 1428T896 1418Q937 1418 937 1523H1024V1005H941Q906
1230 806 1349T570 1469Q438 1469 363 1322Q277 1150 276 751Q276 690 279 599T298 410T344 227T431 87T570 32Q705 32 805 152T941 496H1024V-22H937Q937 84 896 84Q881 84 865 74T828 49Q801 29 766 8T681 -28T565 -44Z" />
<glyph unicode="D" glyph-name="D" horiz-adv-x="1110" d="M425 -22H37V54Q105 54 138 82T182 162T193 280V1221Q193 1288 183 1339T139 1418T37 1447V1523H425Q588 1523 710 1457T915 1280T1038 1032T1079 750Q1079 608 1038 471T915 222T711 45T425 -22ZM452
56Q571 64 653 163T779 419T822 751Q822 925 779 1082T653 1339T452 1446V56Z" />
<glyph unicode="E" glyph-name="E" horiz-adv-x="1100" d="M1002 -22H37V54Q106 54 139 82T183 162T194 280V1221Q194 1288 184 1339T140 1418T37 1447V1523H1002V1005H916Q916 1085 898 1163T846 1305T760 1408T644 1447H453V789H584Q669 789 707 826T755 937T765
1118H851V383H765Q765 490 756 563T708 675T584 713H453V54H644Q709 54 760 93T845 196T898 338T916 496H1002V-22Z" />
<glyph unicode="F" glyph-name="F" horiz-adv-x="1028" d="M609 -22H37V54Q106 54 139 82T183 162T194 280V1221Q194 1288 184 1339T140 1418T37 1447V1523H1001V1005H915Q915 1085 898 1163T845 1305T760 1408T643 1447H453V789H584Q669 789 707 826T755 937T765
1118H851V383H765Q765 490 755 563T707 675T584 713H453V280Q453 213 463 162T507 83T609 54V-22Z" />
<glyph unicode="G" glyph-name="G" horiz-adv-x="1156" d="M565 -44Q441 -44 349 7T193 142T91 331T35 545T17 751Q17 847 34 956T90 1170T192 1358T348 1494T565 1545Q632 1545 681 1530T766 1494T828 1453Q848 1437 865 1428T896 1418Q937 1418 937 1523H1024V1005H941Q906
1230 806 1349T570 1469Q438 1469 364 1322Q277 1150 276 751Q276 690 280 599T298 410T345 227T431 87T570 32Q684 32 766 110V487Q766 553 753 604T708 684T620 713H482V789H1181V713Q1113 713 1080 685T1035 605T1024 487V-22H947Q904 50 841 59Q830 52 818
43Q793 26 758 6T676 -29T565 -44Z" />
<glyph unicode="H" glyph-name="H" horiz-adv-x="1321" d="M1304 -22H732V54Q800 54 833 82T878 162T889 280V713H453V280Q453 213 463 162T507 83T610 54V-22H37V54Q106 54 139 82T183 162T194 280V1221Q194 1288 184 1339T140 1418T37 1447V1523H610V1447Q541
1447 508 1419T464 1339T453 1221V789H889V1221Q889 1288 878 1339T834 1418T732 1447V1523H1304V1447Q1236 1447 1203 1419T1158 1339T1147 1221V280Q1147 213 1158 162T1202 83T1304 54V-22Z" />
<glyph unicode="I" glyph-name="I" horiz-adv-x="625" d="M609 -22H37V54Q105 54 138 82T182 162T193 280V1221Q193 1288 183 1339T139 1418T37 1447V1523H609V1447Q540 1447 507 1419T463 1339T452 1221V280Q452 213 462 162T506 83T609 54V-22Z" />
<glyph unicode="J" glyph-name="J" horiz-adv-x="786" d="M294 -44Q206 -44 127 -7T-1 98T-51 254Q-51 306 -11 349T88 393Q143 393 184 353T225 261Q225 209 184 169T88 129H84Q96 110 126 91Q161 69 205 69Q254 69 296 100T363 197T389 365V1221Q389 1288 379
1339T335 1418T232 1447V1523H805V1447Q736 1447 703 1419T659 1339T648 1221V365Q648 223 597 133T464 -1T294 -44Z" />
<glyph unicode="K" glyph-name="K" horiz-adv-x="1226" d="M1279 -22H707V54Q768 54 785 66T802 110Q802 164 751 272L506 800L452 728V280Q452 213 462 162T506 83T609 54V-22H37V54Q105 54 138 82T182 162T193 280V1221Q193 1288 183 1339T139 1418T37 1447V1523H609V1447Q540
1447 507 1419T463 1339T452 1221V857L727 1232Q826 1365 826 1417Q826 1431 820 1437T793 1445T727 1447V1523H1169V1447Q1091 1447 1033 1420T923 1339T815 1210L681 1032L1026 288Q1057 219 1089 167T1165 84T1279 54V-22Z" />
<glyph unicode="L" glyph-name="L" horiz-adv-x="1039" d="M1002 -22H37V54Q106 54 139 82T183 162T194 280V1221Q194 1288 184 1339T140 1418T37 1447V1523H610V1447Q541 1447 508 1419T464 1339T453 1221V54H644Q709 54 760 93T845 196T898 338T916 496H1002V-22Z" />
<glyph unicode="M" glyph-name="M" horiz-adv-x="1636" d="M1623 -22H1050V54Q1119 54 1152 82T1196 162T1207 280V1230L792 -22H715Q313 1190 288 1262V280Q288 213 297 162T334 83T417 54H465V-22H24V54H72Q127 54 155 82T192 162T202 280V1221Q202 1288 191
1339T147 1418T45 1447V1523H474L844 410L1214 1523H1623V1447Q1554 1447 1521 1419T1477 1339T1466 1221V280Q1466 213 1476 162T1520 83T1623 54V-22Z" />
<glyph unicode="N" glyph-name="N" horiz-adv-x="1220" d="M1066 -22H989Q306 1272 288 1305V280Q288 213 297 162T335 83T418 54H466V-22H24V54H72Q127 54 155 82T192 162T202 280V1221Q202 1288 192 1339T148 1418T45 1447V1523H465L980 547V1221Q980 1288 971
1339T933 1418T850 1447H802V1523H1243V1447H1195Q1140 1447 1113 1419T1076 1339T1066 1221V-22Z" />
<glyph unicode="O" glyph-name="O" horiz-adv-x="1156" d="M566 -44Q424 -44 321 24T150 207T50 462Q18 599 18 742V760Q18 903 50 1041T150 1294T320 1476T566 1545Q707 1545 810 1477T981 1294T1081 1039Q1113 903 1113 760V742Q1113 599 1081 460T981 207T811
25T566 -44ZM566 32Q666 32 730 118T824 366T855 751Q855 974 825 1135T730 1383T566 1469Q465 1469 401 1383T307 1136T276 751Q276 526 306 366T401 119T566 32Z" />
<glyph unicode="P" glyph-name="P" horiz-adv-x="1065" d="M609 -22H37V54Q105 54 138 82T183 162T194 280V1221Q194 1288 183 1339T139 1418T37 1447V1523H653Q759 1523 839 1485T973 1382T1054 1238T1081 1078Q1081 997 1054 918T974 774T840 672T653 633H452V280Q452
213 463 162T507 83T609 54V-22ZM579 709Q660 709 714 762T795 902T822 1085Q822 1179 795 1261T713 1395T579 1447H452V709H579Z" />
<glyph unicode="Q" glyph-name="Q" horiz-adv-x="1165" d="M774 -337Q716 -337 659 -314T546 -262Q495 -236 447 -217T353 -195Q333 -195 309 -202T244 -233L213 -164L425 -27Q295 0 205 116T67 400T20 751Q20 899 52 1039T152 1294T323 1476T568 1545Q709 1545
812 1477T983 1294T1083 1040T1116 751Q1116 603 1084 462T984 207T813 25T567 -44L487 -60Q536 -60 585 -76T681 -112T769 -146T851 -161Q876 -161 899 -153T957 -120L1015 -159Q910 -337 774 -337ZM568 32Q668 32 732 118T826 366T857 751Q857 974 827 1135T732
1383T568 1469Q468 1469 404 1383T310 1136T279 751Q279 526 309 366T404 119T568 32Z" />
<glyph unicode="R" glyph-name="R" horiz-adv-x="1224" d="M1265 -22H692V54Q755 54 772 68T790 116Q790 170 745 273L560 713H453V280Q453 213 463 162T507 83T610 54V-22H37V54Q106 54 139 82T183 162T194 280V1221Q194 1288 184 1339T140 1418T37 1447V1523H653Q758
1523 838 1489T972 1398T1053 1270T1081 1126Q1081 1005 1016 895T830 743L1023 287Q1050 218 1079 166T1151 84T1265 54V-22ZM579 789Q661 789 715 836T796 960T823 1123Q823 1208 796 1282T714 1401T579 1447H453V789H579Z" />
<glyph unicode="S" glyph-name="S" horiz-adv-x="1084" d="M567 -44Q443 -44 343 7Q312 23 290 37T250 59T218 68Q197 68 187 51T177 -22H90V496H173Q224 183 381 82Q460 32 540 32Q632 32 687 89T743 241Q743 341 699 415T586 550T437 668Q372 715 311 766T200
877T120 1012T90 1184Q90 1282 143 1364T296 1496T531 1545Q655 1545 756 1494Q786 1478 808 1465T848 1443T880 1434Q901 1434 911 1451T921 1523H1008V1005H925Q874 1318 717 1420Q638 1469 558 1469Q466 1469 411 1412T355 1261Q355 1160 399 1086T512 951T661
833Q726 786 787 736T898 625T978 489T1008 317Q1008 219 955 137T802 6T567 -44Z" />
<glyph unicode="T" glyph-name="T" horiz-adv-x="1112" d="M887 -22H314V54Q383 54 416 82T460 162T471 280V1447H428Q363 1447 312 1408T227 1306T174 1164T156 1005H70V1523H1131V1005H1045Q1045 1085 1027 1163T975 1305T889 1408T773 1447H730V280Q730 213
740 162T784 83T887 54V-22Z" />
<glyph unicode="U" glyph-name="U" horiz-adv-x="1212" d="M626 -44Q545 -44 468 -18T327 60T227 188T189 366V1221Q189 1288 179 1339T135 1418T32 1447V1523H605V1447Q536 1447 503 1419T459 1339T448 1221V366Q448 266 485 201T581 104T708 72Q777 72 838 103T937
200T976 366V1221Q976 1288 967 1339T930 1418T846 1447H798V1523H1240V1447H1192Q1137 1447 1109 1419T1072 1339T1062 1221V366Q1062 265 1025 189T924 60T784 -18T626 -44Z" />
<glyph unicode="V" glyph-name="V" horiz-adv-x="1094" d="M640 -22H564L204 1216Q185 1284 159 1336T89 1417T-25 1447V1523H547V1447Q480 1447 462 1429T443 1371Q443 1311 471 1226L692 465L913 1226Q937 1304 937 1361Q937 1406 921 1426T854 1447H807V1523H1249V1447H1202Q1145
1447 1107 1418T1044 1336T999 1216L640 -22Z" />
<glyph unicode="W" glyph-name="W" horiz-adv-x="1779" d="M1325 -22H1248L944 1026L640 -22H564L204 1216Q185 1284 159 1336T89 1417T-25 1447V1523H547V1447Q480 1447 462 1429T443 1371Q443 1311 471 1226L692 466L899 1181Q886 1229 870 1276T827 1361Q770
1447 660 1447V1523H1245V1447Q1194 1447 1169 1439T1135 1412T1127 1368Q1127 1337 1136 1301T1156 1226L1377 465L1598 1226Q1622 1303 1622 1360Q1622 1405 1605 1426T1539 1447H1492V1523H1934V1447H1887Q1829 1447 1792 1418T1729 1336T1684 1216L1325 -22Z"
/>
<glyph unicode="X" glyph-name="X" horiz-adv-x="1330" d="M1378 -22H776V54Q834 54 849 64T864 100Q864 153 799 271L634 573L469 271Q403 154 403 100Q403 79 410 70T439 57T510 54V-22H68V54H113Q172 54 218 84T305 168T381 289L586 661L283 1212Q247 1280
206 1333T113 1416T-12 1447V1523H590V1447Q532 1447 517 1437T501 1401Q501 1347 567 1230L732 929L897 1230Q963 1347 963 1401Q963 1421 956 1431T927 1444T856 1447V1523H1298V1447H1252Q1193 1447 1147 1417T1061 1333T985 1212L780 840L1083 289Q1119 221
1160 168T1253 85T1378 54V-22Z" />
<glyph unicode="Y" glyph-name="Y" horiz-adv-x="1043" d="M861 -22H289V54Q357 54 390 82T434 162T445 280V679L222 1214Q195 1282 162 1334T81 1417T-39 1447V1523H541V1447Q480 1447 464 1435T448 1392Q448 1341 496 1228L668 814L840 1228Q888 1340 888 1392Q888
1422 876 1434T822 1447H771V1523H1213V1447H1162Q1104 1447 1062 1417T988 1335T928 1214Q850 1026 704 678V280Q704 213 714 162T758 83T861 54V-22Z" />
<glyph unicode="Z" glyph-name="Z" horiz-adv-x="1103" d="M1032 -22H26L777 1447H458Q392 1447 342 1408T256 1306T204 1164T186 1005H100V1523H1106L355 54H674Q740 54 790 93T876 196T928 338T946 496H1032V-22Z" />
<glyph unicode="[" glyph-name="bracketleft" horiz-adv-x="583" d="M560 -220H23V1721H560V1645H412Q357 1645 329 1617T292 1538T282 1420V82Q282 14 291 -36T329 -115T412 -144H560V-220Z" />
<glyph unicode="\" glyph-name="backslash" horiz-adv-x="682" d="M668 -22H577L14 1523H104L668 -22Z" />
<glyph unicode="]" glyph-name="bracketright" horiz-adv-x="583" d="M560 -220H23V-144H171Q226 -144 254 -116T291 -37T301 82V1420Q301 1487 292 1538T254 1617T171 1645H23V1721H560V-220Z" />
<glyph unicode="^" glyph-name="asciicircum" horiz-adv-x="617" d="M533 1036L308 1394L84 1036L16 1084L308 1549L600 1084L533 1036Z" />
<glyph unicode="_" glyph-name="underscore" horiz-adv-x="790" d="M767 -76H23V0H767V-76Z" />
<glyph unicode="`" glyph-name="grave" horiz-adv-x="402" d="M443 1107L-6 1341L196 1416L443 1107Z" />
<glyph unicode="a" glyph-name="a" horiz-adv-x="933" d="M448 135Q477 135 516 149T570 183V645Q440 621 363 520T285 296Q285 225 323 180T448 135ZM329 -44Q231 -44 163 -6T60 93T25 227Q25 331 86 434T269 614T570 722Q570 813 547 866Q504 964 398 964Q339
964 288 938T221 887Q277 887 318 847T359 755Q359 704 318 664T222 623Q175 623 144 644T97 698T81 771Q81 816 103 866T171 961T284 1032T443 1060Q594 1060 706 976Q829 884 829 724V404Q829 337 839 286T883 207T986 178V102Q889 102 791 65T642 -22H570V35Q566
29 530 11T440 -26T329 -44Z" />
<glyph unicode="b" glyph-name="b" horiz-adv-x="1046" d="M573 -44Q491 -44 422 -11T327 74L199 -22H130V1098Q130 1165 120 1215T76 1294T-26 1323V1399Q70 1399 168 1436T317 1523H389V995L392 997Q403 1003 437 1018T519 1046T619 1060Q721 1060 796 1016T921
898T995 732T1020 542Q1020 437 992 333T907 144T767 8T573 -44ZM507 72Q567 72 614 113T693 222T742 376T759 552Q759 657 736 746T665 889T545 944Q504 944 469 919T411 844T389 714V144Q420 72 507 72Z" />
<glyph unicode="c" glyph-name="c" horiz-adv-x="859" d="M460 -44Q352 -44 269 3T130 130T45 308T16 507Q16 608 43 706T128 884T271 1012T476 1060Q566 1060 633 1032T744 958T811 862T834 764Q834 710 798 667T694 623Q639 623 598 663T557 755Q557 807 598
847T694 887Q675 917 623 948Q561 984 491 984Q420 984 372 926T299 771T274 563Q274 364 340 222Q411 67 533 67Q583 67 628 94T708 180T758 335L840 311Q816 191 758 112T622 -5T460 -44Z" />
<glyph unicode="d" glyph-name="d" horiz-adv-x="1052" d="M411 -44Q309 -44 234 0T109 119T35 285T10 474Q10 579 38 683T123 872T263 1008T457 1060Q502 1060 544 1051T612 1034T640 1023V1098Q640 1165 630 1215T586 1294T484 1323V1399Q580 1399 678 1436T827
1523H899V-22H829L678 106Q647 41 573 -1T411 -44ZM485 72Q526 72 561 97T618 173T640 305V872Q609 944 523 944Q463 944 416 904T337 795T288 641T271 465Q271 360 294 271T365 127T485 72Z" />
<glyph unicode="e" glyph-name="e" horiz-adv-x="866" d="M461 -44Q354 -44 252 19T85 205T18 508Q18 610 45 708T127 885T267 1012T467 1060Q598 1060 683 999T810 836T852 610H279Q277 574 277 508Q278 354 314 257T408 113T534 67Q584 67 629 94T708 180T759
335L841 311Q817 191 759 112T623 -5T461 -44ZM586 686Q585 763 574 830T538 941T467 984Q387 984 343 905T286 686H586Z" />
<glyph unicode="f" glyph-name="f" horiz-adv-x="640" d="M577 -22H5V54Q74 54 107 82T150 162T161 280V962H46V1038H161V1210Q161 1321 210 1395T335 1508T486 1546Q577 1546 636 1509T725 1418T755 1311Q755 1270 739 1232T690 1169T611 1144Q571 1144 544 1162T502
1206T487 1260Q487 1288 502 1317T549 1366T624 1386L631 1385Q624 1404 603 1424Q577 1447 544 1447Q514 1447 486 1424T439 1349T420 1210V1038H608V962H420V280Q420 213 430 162T475 83T577 54V-22Z" />
<glyph unicode="g" glyph-name="g" horiz-adv-x="991" d="M391 -594Q298 -594 210 -575T52 -516T-59 -418T-101 -281Q-101 -195 -31 -121T152 -24L32 161L222 244Q156 294 119 394T80 609Q80 692 103 772T175 917T296 1021T469 1060Q546 1060 604 1038H934V962H736Q786
926 822 825T858 602Q858 523 835 445T764 301T643 197T469 158Q419 158 376 168T305 192L215 147Q276 139 372 136Q449 134 535 127T705 103T857 52T966 -39T1008 -183Q1008 -284 953 -360T809 -489T610 -567T391 -594ZM495 -498Q588 -498 673 -468T813 -385T867
-259Q867 -213 828 -186T726 -142T588 -119T437 -106Q304 -98 223 -80Q192 -106 177 -145T162 -230Q162 -298 202 -359T318 -459T495 -498ZM469 235Q536 235 568 332T600 609Q600 788 568 885T469 983Q402 983 371 886T339 609Q339 429 370 332T469 235Z" />
<glyph unicode="h" glyph-name="h" horiz-adv-x="1170" d="M1176 -22H603V54Q672 54 705 82T750 162Q760 208 760 269V705Q760 789 740 842T685 919T610 944Q547 944 490 886T409 710V280Q409 213 420 162T464 83T566 54V-22H-6V54Q62 54 95 82T140 162T151 280V1098Q151
1165 140 1215T96 1294T-6 1323V1399Q90 1399 188 1436T338 1523H409V944Q417 961 460 988T567 1037T697 1060Q778 1060 851 1021T972 902T1019 705V280Q1019 213 1029 162T1073 83T1176 54V-22Z" />
<glyph unicode="i" glyph-name="i" horiz-adv-x="586" d="M580 -22H8V54Q77 54 110 82T154 162T165 280V612Q165 679 155 730T111 809T8 838V914Q104 914 202 951T352 1038H424V280Q424 213 434 162T478 83T580 54V-22ZM270 1055Q208 1055 163 1102T117 1210Q117
1270 162 1317T270 1365Q332 1365 377 1318T423 1210Q423 1149 378 1102T270 1055Z" />
<glyph unicode="j" glyph-name="j" horiz-adv-x="580" d="M101 -530Q9 -530 -50 -493T-139 -402T-169 -295Q-169 -254 -152 -216T-103 -153T-25 -128Q15 -128 42 -145T84 -190T99 -244Q99 -272 84 -301T38 -350T-38 -370Q-44 -370 -51 -367Q-42 -393 -17 -412T42
-431Q73 -431 101 -408T148 -332T166 -194V612Q166 679 156 730T112 809T9 838V914Q106 914 204 951T353 1038H425V-194Q425 -305 376 -379T252 -492T101 -530ZM271 1055Q209 1055 164 1102T118 1210Q118 1270 163 1317T271 1365Q333 1365 379 1318T425 1210Q425
1149 379 1102T271 1055Z" />
<glyph unicode="k" glyph-name="k" horiz-adv-x="1121" d="M1175 -22H601L597 54Q657 54 672 64T687 101Q687 155 625 271L493 518L409 407V280Q409 213 419 162T463 83T566 54V-22H-6V54Q63 54 96 82T139 162T150 280V1098Q150 1165 140 1215T96 1294T-6 1323V1399Q90
1399 188 1436T337 1523H409V540L561 747Q660 880 660 932Q660 946 654 952T627 960T561 962V1038H1003V962Q926 962 869 936T763 860T659 739L901 289Q936 220 971 168T1052 85T1168 54L1175 -22Z" />
<glyph unicode="l" glyph-name="l" horiz-adv-x="581" d="M567 -22H-6V54Q63 54 96 82T140 162T151 280V1098Q151 1165 141 1215T97 1294T-6 1323V1399Q91 1399 189 1436T338 1523H410V280Q410 213 420 162T464 83T567 54V-22Z" />
<glyph unicode="m" glyph-name="m" horiz-adv-x="1795" d="M1805 -22H1233V54Q1302 54 1335 82T1380 162Q1390 208 1390 269V705Q1389 789 1369 842T1314 919T1240 944Q1177 944 1119 886T1039 710V280Q1039 213 1049 162T1093 83T1196 54V-22H623V54Q692 54 725
82T770 162Q780 208 780 269V705Q780 789 760 842T705 919T630 944Q567 944 510 886T429 710V280Q429 213 440 162T484 83T586 54V-22H14V54Q82 54 115 82T160 162T171 280V612Q171 679 160 730T116 809T14 838V914Q110 914 208 951T358 1038H429V944Q437 961 480
988T587 1037T717 1060Q821 1060 908 1008T1012 892Q1027 931 1075 969T1190 1033T1326 1060Q1407 1060 1481 1021T1602 902T1649 705V280Q1649 213 1659 162T1703 83T1805 54V-22Z" />
<glyph unicode="n" glyph-name="n" horiz-adv-x="1190" d="M1196 -22H624V54Q693 54 726 82T771 162Q781 208 781 269V705Q780 789 760 842T705 919T631 944Q568 944 510 886T430 710V280Q430 213 440 162T484 83T587 54V-22H14V54Q83 54 116 82T160 162T171 280V612Q171
679 161 730T117 809T14 838V914Q111 914 209 951T358 1038H430V944Q438 961 481 988T588 1037T717 1060Q798 1060 872 1021T993 902T1040 705V280Q1040 213 1050 162T1094 83T1196 54V-22Z" />
<glyph unicode="o" glyph-name="o" horiz-adv-x="935" d="M468 -44Q353 -44 268 4T128 131T46 308T19 508Q19 610 46 708T128 885T268 1012T468 1060Q584 1060 668 1012T808 885T890 708T917 508Q917 406 891 308T809 131T669 4T468 -44ZM468 32Q567 32 612 157T658
508Q658 733 613 858T468 984Q370 984 324 860T278 508Q278 281 324 157T468 32Z" />
<glyph unicode="p" glyph-name="p" horiz-adv-x="1072" d="M568 -507H-5V-431Q64 -431 97 -403T141 -323T152 -205V612Q152 679 142 730T98 809T-5 838V914Q92 914 190 951T339 1038H411V995L414 996Q424 1002 457 1017T539 1046T640 1060Q740 1060 815 1018T940
903T1016 742T1042 558Q1042 452 1014 345T931 151T791 10T594 -44Q549 -44 507 -35T439 -17T411 -6V-205Q411 -272 421 -323T465 -402T568 -431V-507ZM528 72Q588 72 635 112T714 221T763 374T780 549Q779 659 756 748T687 890T567 944Q525 944 490 919T433 843T411
711V144Q442 72 528 72Z" />
<glyph unicode="q" glyph-name="q" horiz-adv-x="1061" d="M492 72Q533 72 568 97T625 173T647 305V872Q616 944 530 944Q470 944 423 904T344 795T295 641T278 465Q278 360 301 271T372 127T492 72ZM1063 -507H491V-431Q559 -431 592 -403T636 -323T647 -205V21L643
19Q633 13 599 -2T518 -30T418 -44Q316 -44 241 0T116 119T42 285T17 474Q17 579 45 683T130 872T270 1008T464 1060Q539 1060 604 1032T699 956Q731 967 768 988T834 1038H906V-205Q906 -272 916 -323T960 -402T1063 -431V-507Z" />
<glyph unicode="r" glyph-name="r" horiz-adv-x="895" d="M587 -22H14V54Q83 54 116 82T160 162T171 280V612Q171 679 161 730T117 809T14 838V914Q111 914 209 951T358 1038H430V983Q434 991 472 1009T566 1043T678 1060Q746 1060 793 1034T864 968T888 890Q888
849 868 820T817 776T754 761Q723 761 692 776T640 819T619 886Q619 915 634 944Q644 964 656 975L637 976Q575 976 528 934T456 830T430 708V280Q430 213 440 162T484 83T587 54V-22Z" />
<glyph unicode="s" glyph-name="s" horiz-adv-x="916" d="M472 -44Q354 -44 229 6L171 28V-21H85V398H171Q171 146 299 67Q354 32 412 32Q494 32 536 77T578 188Q578 229 550 264T476 334T376 405Q307 450 241 502T131 620T85 770Q85 847 127 912T250 1019T448
1060Q566 1060 682 1014Q726 996 749 981V1038H835V618H749Q749 755 713 835T622 949T508 984Q426 984 384 939T342 828Q342 787 370 752T444 682T544 611Q613 566 679 514T789 396T835 246Q835 170 793 105T670 -2T472 -44Z" />
<glyph unicode="t" glyph-name="t" horiz-adv-x="627" d="M399 -44Q304 -44 246 -3T162 110T135 270V736Q135 803 125 854T81 933T-22 962V1038Q89 1038 180 1127T313 1367H394V1038H540V962H394V270Q394 186 406 143T441 86T491 72Q522 72 547 103T595 189L662
150Q622 65 557 11T399 -44Z" />
<glyph unicode="u" glyph-name="u" horiz-adv-x="1118" d="M452 -44Q371 -44 297 -5T177 114T130 311V612Q130 679 119 730T75 809T-27 838V914Q69 914 167 951T317 1038H388V311Q389 227 409 174T464 97T538 72Q602 72 659 129T739 306V612Q739 679 729 730T685
809T582 838V914Q679 914 777 951T926 1038H998V404Q998 337 1008 286T1052 207T1155 178V102Q1059 102 960 65T811 -22H739V72Q731 55 688 28T582 -21T452 -44Z" />
<glyph unicode="v" glyph-name="v" horiz-adv-x="961" d="M501 -22H427L165 730Q142 798 114 850T41 932T-71 962V1038H490V962Q430 962 414 948T397 899Q397 847 435 742L557 393L679 742Q716 847 716 898Q716 933 703 947T650 962H600V1038H1022V962H972Q918
962 880 932T815 850T764 730L501 -22Z" />
<glyph unicode="w" glyph-name="w" horiz-adv-x="1494" d="M1036 -22H961L732 636L502 -22H427L165 730Q142 798 114 850T41 932T-71 962V1038H490V962Q430 962 414 948T397 899Q397 847 435 742L557 393L782 1038H866L1091 393L1213 742Q1250 847 1250 898Q1250
933 1237 947T1184 962H1134V1038H1557V962H1507Q1452 962 1415 932T1349 850T1298 730L1036 -22Z" />
<glyph unicode="x" glyph-name="x" horiz-adv-x="1139" d="M1178 -22H566V54Q622 54 635 62T649 92Q649 145 569 270L519 350L514 342Q498 318 469 271T415 174T390 92Q390 75 396 67T423 57T491 54V-22H49V54H94Q153 54 203 85T297 169T384 290T471 427L281 726Q239
794 194 847T93 931T-35 962V1038H577V962Q521 962 508 954T494 924Q494 870 572 748L623 666L628 674Q645 698 674 745T728 842T753 924Q753 941 747 949T720 959T652 962V1038H1094V962H1048Q989 962 939 931Q853 877 759 726L672 589L861 290Q903 222 948 169T1049
85T1178 54V-22Z" />
<glyph unicode="y" glyph-name="y" horiz-adv-x="973" d="M170 -394Q87 -394 28 -348T-34 -232Q-34 -174 7 -136T97 -97Q147 -97 189 -131T234 -226Q234 -254 222 -280Q213 -300 203 -309H213Q307 -309 391 -108Q405 -72 431 0L176 730Q153 798 125 850T53 932T-59
962V1038H502V962Q441 962 425 948T408 898Q408 867 419 828Q426 799 568 393L690 742Q727 848 727 899Q727 933 714 947T661 962H611V1038H1034V962H984Q929 962 891 932Q826 881 775 730L508 -38Q455 -191 396 -272Q307 -394 170 -394Z" />
<glyph unicode="z" glyph-name="z" horiz-adv-x="930" d="M847 -22H25L560 962H429Q322 962 263 935T181 834T157 618H71V1038H892L358 54H488Q595 54 654 81T737 182T761 398H847V-22Z" />
<glyph unicode="{" glyph-name="braceleft" horiz-adv-x="701" d="M678 -220H359Q257 -220 211 -179T154 -59T142 133V523Q142 607 119 651T56 716T-37 751Q16 763 56 784T119 850T142 978V1369Q142 1481 153 1560T211 1680T359 1721H678V1645H475Q433 1645 417
1627T401 1565V978Q401 932 392 880T372 791T349 751Q360 747 371 711T392 622T401 523V-64Q401 -108 417 -126T475 -144H678V-220Z" />
<glyph unicode="|" glyph-name="bar" horiz-adv-x="932" d="M509 -419H423V1523H509V-419Z" />
<glyph unicode="}" glyph-name="braceright" horiz-adv-x="701" d="M342 -220H23V-144H226Q268 -144 284 -126T300 -64V523Q300 569 309 621T329 710T352 751Q341 754 330 791T309 880T300 978V1565Q300 1609 284 1627T226 1645H23V1721H342Q444 1721 490 1680T547
1560T559 1369V978Q559 894 582 850T645 785T737 751Q685 738 645 717T582 651T559 523V133Q559 20 548 -59T490 -179T342 -220Z" />
<glyph unicode="~" glyph-name="asciitilde" horiz-adv-x="648" d="M23 580Q23 694 46 761T106 858T182 888Q236 888 283 869T372 826Q407 807 439 793T502 779Q518 779 532 787T568 828T625 927Q625 812 602 744T542 644T464 613Q411 613 365 632T276 675Q241
694 209 708T145 722Q129 722 115 715T79 677T23 580Z" />
</font>
</defs>
</svg>
