<?xml version="1.0" standalone="no"?> <!DOCTYPE svg PUBLIC "-//W3C//DTD SVG 1.0//EN" "http://www.w3.org/TR/2001/REC-SVG-20010904/DTD/svg10.dtd" > <svg xmlns="http://www.w3.org/2000/svg" width="100%" height="100%">
<defs >
<font horiz-adv-x="940" ><font-face
    font-family="Evenings"
    units-per-em="2048"
    panose-1="2 0 6 0 0 0 0 0 0 0"
    ascent="1763"
    descent="-572"
    alphabetic="0" />
<missing-glyph horiz-adv-x="1024" />
<glyph unicode=" " glyph-name="space" horiz-adv-x="508" />
<glyph unicode="!" glyph-name="exclam" horiz-adv-x="421" d="M214 182L71 1321Q69 1338 69 1353Q69 1409 91 1447T148 1504T215 1523Q248 1523 281 1504T337 1448T359 1357Q359 1342 214 182ZM214 0Q188 0 170 19T151 66Q151 94 169 113T214 133Q240 133 258
114T277 66Q277 39 259 20T214 0Z" />
<glyph unicode="&quot;" glyph-name="quotedbl" horiz-adv-x="433" d="M126 1188L54 1422Q50 1435 50 1447Q50 1483 77 1503T127 1523Q149 1523 175 1504T201 1450Q201 1438 197 1425L126 1188ZM308 1188L236 1422Q232 1435 232 1447Q232 1483 259 1503T309 1523Q331
1523 357 1504T383 1450Q383 1438 379 1425L308 1188Z" />
<glyph unicode="#" glyph-name="numbersign" horiz-adv-x="1624" d="M1318 0H796V32Q863 32 901 65T960 155T990 280L1000 351H504L496 304Q491 273 488 248T485 183Q485 117 511 75T613 32V0H90V32Q157 32 195 65T254 155T284 280L295 351H50V383H300L410 1119H163V1151H415L423
1196Q428 1228 431 1253T434 1318Q434 1384 408 1426T306 1469V1501H828V1469Q762 1469 724 1436T665 1346T634 1221L624 1151H1121L1130 1209Q1135 1238 1137 1260T1140 1319Q1140 1385 1113 1427T1012 1469V1501H1534V1469Q1468 1469 1429 1436T1370 1346T1340
1221L1329 1151H1574V1119H1325L1214 383H1461V351H1209L1200 291Q1195 263 1193 241T1190 181Q1190 115 1217 74T1318 32V0ZM1005 383L1116 1119H619L508 383H1005Z" />
<glyph unicode="$" glyph-name="dollar" horiz-adv-x="965" d="M498 -178H466V-21Q373 -16 288 27Q264 40 243 53Q217 68 195 79T151 90Q85 90 83 0H50V474H82Q130 179 299 63Q381 12 466 10V631Q427 662 386 692Q323 738 264 787T156 894T79 1023T50 1184Q50
1278 99 1355T241 1477T464 1523H466V1679H498V1522Q592 1517 676 1474Q701 1461 722 1449Q748 1433 770 1423T813 1412Q879 1412 881 1501H915V1027H883Q834 1322 665 1438Q584 1489 498 1491V870Q538 839 579 809Q642 763 701 714T809 608T886 479T915 317Q915
223 866 146T723 24T500 -22H498V-178ZM466 896V1490Q373 1480 318 1417T262 1261Q262 1179 289 1114T362 996T466 896ZM498 11Q591 21 647 84T703 241Q703 323 676 387T602 505T498 606V11Z" />
<glyph unicode="%" glyph-name="percent" horiz-adv-x="1294" d="M319 802Q245 802 194 833T111 917T65 1033T50 1163Q50 1228 64 1292T110 1408T193 1491T319 1523Q393 1523 444 1492T527 1408T573 1292T588 1163Q588 1097 574 1033T527 917T444 834T319 802ZM975
-22Q901 -22 850 9T767 93T721 209T706 339Q706 405 720 468T766 584T849 668T975 700Q1049 700 1100 668T1183 584T1229 469T1244 339Q1244 273 1230 210T1183 94T1100 10T975 -22ZM975 10Q1019 10 1043 50T1077 165T1087 339Q1087 439 1078 512T1044 627T975
668Q931 668 907 627T872 513T862 339Q862 238 872 165T906 51T975 10ZM319 834Q363 834 387 874T421 989T431 1163Q431 1262 422 1336T388 1450T319 1491Q275 1491 251 1451T216 1337T206 1163Q206 1062 216 989T250 875T319 834ZM258 0H224L1035 1501H1069L258
0Z" />
<glyph unicode="&amp;" glyph-name="ampersand" horiz-adv-x="1367" d="M437 -22Q312 -22 226 31T95 173T50 365Q50 509 133 648T392 887Q338 973 302 1065T265 1259Q265 1350 310 1408T425 1495T567 1523Q655 1523 713 1496T801 1423T831 1320Q831 1232 771 1137T590
974Q843 520 899 424Q920 475 935 542T950 664Q950 758 908 799T768 840V872H1175V840Q1097 840 1059 810T1006 728T981 614L980 606Q963 494 922 387L961 321Q991 268 1024 217T1099 124Q1190 32 1317 32V0H772V32Q829 32 829 86Q829 111 819 138T797 183Q735
83 641 31T437 -22ZM596 119Q726 119 776 217Q737 282 661 412T510 670T403 857Q309 796 264 704T219 513Q219 413 263 323T391 176T596 119ZM577 1004Q626 1053 654 1136T682 1301Q682 1353 670 1396T633 1465T568 1491Q525 1491 489 1451T453 1329Q453 1204 577
1004Z" />
<glyph unicode="&apos;" glyph-name="quotesingle" horiz-adv-x="251" d="M126 1188L54 1422Q50 1435 50 1447Q50 1483 77 1503T127 1523Q149 1523 175 1504T201 1450Q201 1438 197 1425L126 1188Z" />
<glyph unicode="(" glyph-name="parenleft" horiz-adv-x="623" d="M573 -198Q379 -198 252 -23Q144 126 92 362Q50 558 50 745Q50 933 92 1131Q143 1371 250 1521Q377 1699 573 1699Q494 1699 435 1617T337 1397T277 1091T257 750Q257 578 277 410T336 104T435
-115T573 -198Z" />
<glyph unicode=")" glyph-name="parenright" horiz-adv-x="623" d="M50 -198Q129 -198 188 -116T286 104T345 409T365 750Q365 922 346 1090T287 1396T188 1616T50 1699Q245 1699 372 1521Q480 1371 531 1131Q573 933 573 745Q573 558 530 362Q479 126 371 -23Q244
-198 50 -198Z" />
<glyph unicode="*" glyph-name="asterisk" horiz-adv-x="406" d="M261 1209Q233 1209 225 1242L203 1341L181 1242Q173 1209 145 1209Q125 1209 105 1226T85 1263Q85 1281 108 1297L192 1346L88 1339Q68 1339 59 1350T50 1378Q50 1398 63 1417T96 1437Q109 1437
125 1424L196 1358L158 1447Q153 1459 153 1468Q153 1488 169 1497T204 1507Q222 1507 238 1498T254 1469Q254 1460 249 1449L210 1359L281 1424Q297 1437 310 1437Q330 1437 343 1418T356 1377Q356 1362 348 1351T319 1339L214 1346L298 1297Q321 1281 321 1263Q321
1243 301 1226T261 1209Z" />
<glyph unicode="+" glyph-name="plus" horiz-adv-x="654" d="M343 474H311V735H50V767H311V1027H343V767H604V735H343V474Z" />
<glyph unicode="," glyph-name="comma" horiz-adv-x="227" d="M84 -123L68 -105Q127 -53 142 7Q129 0 113 0Q87 0 69 19T50 66Q50 99 70 115T115 133Q139 133 158 117T177 67Q177 12 149 -42T84 -123Z" />
<glyph unicode="-" glyph-name="hyphen" horiz-adv-x="507" d="M457 492H50V524H457V492Z" />
<glyph unicode="." glyph-name="period" horiz-adv-x="226" d="M113 0Q87 0 69 19T50 66Q50 94 68 113T113 133Q139 133 157 114T176 66Q176 39 158 20T113 0Z" />
<glyph unicode="/" glyph-name="slash" horiz-adv-x="682" d="M84 0H50L598 1501H632L84 0Z" />
<glyph unicode="0" glyph-name="zero" horiz-adv-x="1078" d="M539 -22Q405 -22 312 41T161 213T77 460T50 751Q50 903 76 1041T160 1287T311 1459T539 1523Q673 1523 766 1460T918 1288T1002 1041T1028 751Q1028 598 1002 460T918 214T767 42T539 -22ZM539 10Q650
10 711 98T798 351T823 751Q823 984 798 1149T712 1403T539 1491Q428 1491 367 1403T279 1150Q255 991 255 769V734Q255 511 280 349T366 98T539 10Z" />
<glyph unicode="1" glyph-name="one" horiz-adv-x="619" d="M569 0H50V32Q117 32 150 65T195 155T207 280V1098Q207 1166 196 1222T151 1311T50 1345V1377L412 1501V280Q412 212 423 156T468 66T569 32V0Z" />
<glyph unicode="2" glyph-name="two" horiz-adv-x="1028" d="M978 0H50V14Q50 104 81 188T165 352T283 509T418 661Q508 758 587 855T716 1053T767 1261Q767 1360 703 1425T537 1491Q452 1491 363 1438Q194 1323 146 1027H114V1501H147Q147 1459 164 1436T215
1412Q236 1412 258 1422T306 1449L352 1474Q446 1523 564 1523Q694 1523 786 1478T928 1355T978 1184Q978 1092 945 1005T858 834T736 670T597 511Q486 389 396 271T273 32H647Q720 32 775 73T869 181T926 324T946 474H978V0Z" />
<glyph unicode="3" glyph-name="three" horiz-adv-x="1061" d="M500 -22Q383 -22 288 27Q264 40 243 53Q217 68 195 79T151 90Q85 90 84 0H50V474H82Q130 179 299 63Q387 10 474 10Q556 10 618 47T721 145T784 282T805 435Q805 524 779 607T699 743T564 796L382
798V830H533Q600 830 644 879T709 1003T731 1156Q731 1240 703 1316T617 1442T474 1491Q387 1491 299 1438Q130 1322 82 1027H50V1501H84Q84 1459 101 1436T151 1412Q172 1412 194 1422T243 1449L288 1474Q383 1523 500 1523Q615 1523 698 1492T835 1409T915 1291T941
1156Q941 1049 883 955T712 818Q856 780 933 669T1011 427Q1011 345 981 265T889 120T731 17T500 -22Z" />
<glyph unicode="4" glyph-name="four" horiz-adv-x="1127" d="M1077 0H559V32Q625 32 658 65T703 155T715 280V384H50L881 1501H920V416H1016V384H920V280Q920 212 931 156T976 66T1077 32V0ZM715 416V1228L106 416H715Z" />
<glyph unicode="5" glyph-name="five" horiz-adv-x="1053" d="M500 -22Q382 -22 288 27Q262 41 241 54Q215 69 194 79T151 90Q85 90 83 0H50V474H82Q130 179 299 63Q388 10 473 10Q573 10 646 75T760 243T801 456Q797 666 691 773T420 881Q285 881 139 806L107
808L184 1501H884V1027H852Q852 1172 776 1233T553 1295H192L143 842Q298 920 466 920Q570 920 666 892T837 806T958 662T1003 458Q1003 368 970 283T873 129T716 19T500 -22Z" />
<glyph unicode="6" glyph-name="six" horiz-adv-x="1003" d="M571 -22Q453 -22 366 27T218 157T120 340T67 548T50 751Q50 847 66 953T120 1161T217 1343T365 1474T571 1523Q627 1523 671 1509T749 1475T806 1439Q836 1416 849 1416Q883 1416 883 1492V1501H917V1027H885Q865
1170 830 1274T734 1434T576 1491Q433 1491 355 1343Q292 1225 270 1028Q255 900 255 744Q300 831 378 884T571 938Q670 938 742 897T860 788T930 634T953 458Q953 368 931 283T862 130T743 20T571 -22ZM574 10Q665 14 706 135T748 458Q748 594 730 694T672 850T571
906Q509 906 470 851T413 695T394 458Q394 424 396 369T407 252T435 135T487 45T571 10H574Z" />
<glyph unicode="7" glyph-name="seven" horiz-adv-x="966" d="M387 0H148L780 1295H381Q235 1295 159 1234T82 1027H50V1501H916L387 0Z" />
<glyph unicode="8" glyph-name="eight" horiz-adv-x="1134" d="M567 830Q627 830 681 866T769 974T804 1156Q804 1236 778 1313T699 1441T567 1491Q487 1491 435 1441T356 1314T329 1156Q329 1046 364 974T452 866T567 830ZM567 10Q644 10 702 48T800 147T858
284T878 435Q878 558 833 638T716 758T567 798Q489 798 418 758T301 638T255 435Q255 360 275 285T334 148T431 48T567 10ZM567 -22Q428 -22 310 28T121 178T50 427Q50 558 127 669T348 818Q237 861 178 955T119 1156Q119 1251 156 1320T257 1435T401 1501T567
1523Q653 1523 733 1502T876 1435T977 1321T1014 1156Q1014 1049 956 955T785 818Q929 780 1006 669T1084 427Q1084 278 1013 178T824 28T567 -22Z" />
<glyph unicode="9" glyph-name="nine" horiz-adv-x="1003" d="M432 -22Q376 -22 332 -8T254 26T197 63Q168 86 154 86Q120 86 120 9V0H86V474H118Q138 331 174 228T270 67T427 10Q570 10 649 158Q748 346 748 730V758Q703 671 625 618T432 564Q334 564 262 604T143
713T73 867T50 1044Q50 1133 72 1218T141 1372T260 1482T432 1523Q550 1523 637 1474T785 1344T883 1161T936 954T953 751Q953 655 937 548T883 340T786 158T638 27T432 -22ZM432 596Q494 596 533 651T590 807T609 1044Q609 1077 607 1132T597 1249T569 1366T517
1456T432 1491Q255 1486 255 1044Q255 908 273 807T331 651T432 596Z" />
<glyph unicode=":" glyph-name="colon" horiz-adv-x="326" d="M163 0Q137 0 119 19T100 66Q100 94 118 113T163 133Q189 133 207 114T226 66Q226 39 208 20T163 0ZM163 1071Q137 1071 119 1090T100 1137Q100 1164 118 1183T163 1203Q189 1203 207 1184T226 1137Q226
1109 208 1090T163 1071Z" />
<glyph unicode=";" glyph-name="semicolon" horiz-adv-x="327" d="M134 -123L117 -105Q176 -53 191 7Q178 0 163 0Q137 0 119 19T100 66Q100 99 119 115T164 133Q188 133 207 117T226 67Q226 12 198 -42T134 -123ZM164 1071Q138 1071 120 1090T101 1137Q101 1164
119 1183T164 1203Q190 1203 208 1184T227 1137Q227 1109 209 1090T164 1071Z" />
<glyph unicode="&lt;" glyph-name="less" horiz-adv-x="595" d="M529 460L50 737V765L529 1041L545 1014L90 751L545 488L529 460Z" />
<glyph unicode="=" glyph-name="equal" horiz-adv-x="653" d="M603 805H50V837H603V805ZM603 664H50V696H603V664Z" />
<glyph unicode="&gt;" glyph-name="greater" horiz-adv-x="595" d="M66 460L50 488L505 751L50 1014L66 1041L545 765V737L66 460Z" />
<glyph unicode="?" glyph-name="question" horiz-adv-x="965" d="M399 182Q372 247 372 319Q372 398 398 483T464 655T548 829Q588 908 623 983T680 1129T703 1261Q703 1360 639 1425T474 1491Q387 1491 299 1438Q131 1323 82 1027H50V1501H84Q84 1459 101 1436T152
1412Q173 1412 195 1423T244 1449L288 1474Q383 1523 501 1523Q631 1523 723 1478T865 1355T915 1184Q915 1085 875 994T773 816T643 646Q580 568 525 492T434 338T399 182ZM399 0Q373 0 355 19T336 67Q336 94 354 113T399 133Q425 133 443 114T462 67Q462 39 444
20T399 0Z" />
<glyph unicode="@" glyph-name="at" horiz-adv-x="1346" d="M608 -117Q466 -117 361 -72T187 51T84 228T50 434Q50 560 94 684T224 909T438 1071T732 1133Q879 1133 985 1082T1160 947T1262 762T1296 556Q1296 448 1260 354T1155 202T985 144Q925 144 873 168T789
236T756 337L757 355Q681 149 511 149Q448 149 408 176T349 250T330 353Q331 438 363 527T454 694T595 819T776 867Q814 867 853 852T918 807T945 738Q943 699 915 425Q908 360 908 335Q908 297 917 263T953 207T1029 186Q1101 186 1153 237T1233 372T1262 553Q1262
651 1232 747T1137 923T972 1052T728 1101Q571 1101 451 1043T250 890T127 678T85 442Q85 340 117 245T214 76T378 -41T611 -85Q718 -85 817 -50L830 -78Q724 -117 608 -117ZM571 212Q665 212 723 374Q735 406 759 509T795 710L796 737Q796 783 779 805T735 827Q702
827 660 791T577 687Q536 614 510 526T484 358Q484 326 491 292T516 235T571 212Z" />
<glyph unicode="A" glyph-name="A" horiz-adv-x="1088" d="M1136 0H617V32Q676 32 698 59T721 131Q721 183 693 280L651 423H240L199 280Q173 200 173 140Q173 80 202 56T303 32V0H-84V32H-64Q3 32 46 65T117 155T164 280L519 1501H553L907 280Q926 211 954 155T1026
66T1136 32V0ZM642 455L446 1131L249 455H642Z" />
<glyph unicode="B" glyph-name="B" horiz-adv-x="1091" d="M579 32Q669 32 729 88T819 232T849 416Q849 517 820 603T733 742T585 796H426V32H579ZM653 0H64V32Q130 32 164 65T209 155T221 280V1221Q221 1289 210 1345T164 1435T64 1469V1501H626Q740 1501 819
1453T938 1328T979 1166Q979 1057 926 960T758 818Q903 780 978 668T1054 426Q1054 347 1030 271T956 134T831 37T653 0ZM576 830Q644 830 688 876T754 994T776 1146Q776 1226 751 1300T675 1421T552 1469H426V830H576Z" />
<glyph unicode="C" glyph-name="C" horiz-adv-x="1116" d="M565 -22Q447 -22 360 27T212 157T114 340T61 548T44 751Q44 847 60 953T114 1161T211 1343T359 1474T565 1523Q622 1523 666 1510T744 1477T804 1439T853 1408T896 1396Q929 1396 946 1427T964 1501H997V1027H965Q931
1243 823 1367T570 1491Q427 1491 345 1336Q250 1156 249 751Q249 595 264 468Q286 277 350 157Q428 10 570 10Q715 10 823 134T965 474H997V0H964Q964 42 947 74T896 106Q875 106 853 94T805 63T744 25T666 -8T565 -22Z" />
<glyph unicode="D" glyph-name="D" horiz-adv-x="1110" d="M425 0H64V32Q130 32 163 65T208 155T220 280V1221Q220 1289 209 1345T164 1435T64 1469V1501H425Q582 1501 699 1438T895 1267T1012 1027T1052 750Q1052 610 1013 476T896 235T700 64T425 0ZM425 33Q567
42 661 145T802 411T849 751Q849 927 802 1089T661 1356T425 1469V33Z" />
<glyph unicode="E" glyph-name="E" horiz-adv-x="1100" d="M975 0H64V32Q131 32 164 65T209 155T221 280V1221Q221 1289 210 1345T165 1435T64 1469V1501H975V1027H943Q943 1100 924 1177T866 1320T773 1427T644 1469H426V767H584Q682 767 725 809T780 925T792
1096H824V405H792Q792 501 781 575T726 692T584 735H426V32H644Q717 32 772 73T866 181T923 324T943 474H975V0Z" />
<glyph unicode="F" glyph-name="F" horiz-adv-x="1028" d="M582 0H64V32Q130 32 164 65T209 155T221 280V1221Q221 1289 210 1345T164 1435T64 1469V1501H974V1027H942Q942 1100 923 1177T866 1320T772 1427T643 1469H426V767H584Q681 767 725 809T780 925T792
1096H824V405H792Q792 501 781 575T725 692T584 735H426V280Q426 212 437 156T482 66T582 32V0Z" />
<glyph unicode="G" glyph-name="G" horiz-adv-x="1156" d="M565 -22Q447 -22 360 27T212 157T114 340T61 548T44 751Q44 847 60 953T114 1161T211 1343T359 1474T565 1523Q622 1523 666 1510T744 1477T804 1439T853 1408T896 1396Q929 1396 946 1427T964 1501H997V1027H965Q932
1243 824 1367T570 1491Q427 1491 345 1336Q250 1156 249 751Q249 595 264 468Q286 277 350 157Q428 10 570 10Q694 10 793 102V487Q793 735 620 735H509V767H1154V735Q1088 735 1054 702T1009 612T997 487V0H964Q923 68 834 83L805 63Q778 44 744 25T666 -8T565
-22Z" />
<glyph unicode="H" glyph-name="H" horiz-adv-x="1321" d="M1277 0H759V32Q825 32 859 65T904 155T916 280V735H426V280Q426 212 437 156T482 66T583 32V0H64V32Q131 32 164 65T209 155T221 280V1221Q221 1289 210 1345T165 1435T64 1469V1501H583V1469Q516 1469
483 1436T438 1346T426 1221V767H916V1221Q916 1289 905 1345T859 1435T759 1469V1501H1277V1469Q1211 1469 1177 1436T1132 1346T1120 1221V280Q1120 212 1131 156T1177 66T1277 32V0Z" />
<glyph unicode="I" glyph-name="I" horiz-adv-x="625" d="M582 0H64V32Q130 32 163 65T208 155T220 280V1221Q220 1289 209 1345T164 1435T64 1469V1501H582V1469Q516 1469 482 1436T437 1346T425 1221V280Q425 212 436 156T482 66T582 32V0Z" />
<glyph unicode="J" glyph-name="J" horiz-adv-x="786" d="M294 -22Q211 -22 138 12T21 108T-24 254Q-24 301 8 336T88 371Q134 371 166 339T198 261Q198 215 166 183T88 151Q63 151 41 159Q103 47 205 47Q261 47 309 82T386 189T416 365V1221Q416 1289 405 1345T360
1435T259 1469V1501H778V1469Q711 1469 678 1436T633 1346T621 1221V365Q621 228 575 143T453 18T294 -22Z" />
<glyph unicode="K" glyph-name="K" horiz-adv-x="1226" d="M1252 0H734V32Q829 32 829 110Q829 168 776 280L512 849L425 734V280Q425 212 436 156T482 66T582 32V0H64V32Q130 32 163 65T208 155T220 280V1221Q220 1289 209 1345T164 1435T64 1469V1501H582V1469Q516
1469 482 1436T437 1346T425 1221V778L750 1221Q853 1359 853 1417Q853 1449 829 1459T754 1469V1501H1142V1469Q1072 1469 1014 1439T903 1354T792 1221L651 1034L1001 280Q1032 211 1065 155T1142 66T1252 32V0Z" />
<glyph unicode="L" glyph-name="L" horiz-adv-x="1039" d="M975 0H64V32Q131 32 164 65T209 155T221 280V1221Q221 1289 210 1345T165 1435T64 1469V1501H583V1469Q516 1469 483 1436T438 1346T426 1221V32H644Q717 32 772 73T866 181T923 324T943 474H975V0Z" />
<glyph unicode="M" glyph-name="M" horiz-adv-x="1636" d="M1596 0H1077V32Q1144 32 1177 65T1222 155T1234 280V1355Q1200 1296 1177 1221L771 0H736L330 1221Q303 1309 261 1373V280Q261 212 272 156T317 66T417 32H438V0H51V32H72Q138 32 172 65T217 155T229
280V1221Q229 1289 218 1345T172 1435T72 1469V1501H453L844 325L1234 1501H1596V1469Q1529 1469 1496 1436T1451 1346T1439 1221V280Q1439 212 1450 156T1495 66T1596 32V0Z" />
<glyph unicode="N" glyph-name="N" horiz-adv-x="1220" d="M1039 0H1007L363 1221Q317 1311 261 1377V280Q261 212 272 156T317 66T418 32H439V0H51V32H72Q139 32 172 65T217 155T229 280V1221Q229 1289 218 1345T173 1435T72 1469V1501H448L1007 440V1221Q1007
1289 996 1345T950 1435T850 1469H829V1501H1216V1469H1195Q1129 1469 1096 1436T1051 1346T1039 1221V0Z" />
<glyph unicode="O" glyph-name="O" horiz-adv-x="1156" d="M566 -22Q431 -22 333 43T171 219T76 467Q45 600 45 742Q45 897 76 1034T171 1282T333 1457T566 1523Q700 1523 798 1458T960 1282T1055 1034Q1086 901 1086 760V742Q1086 600 1055 465T960 220T798 44T566
-22ZM566 10Q676 10 746 101T849 359T882 751Q882 976 849 1142T746 1400T566 1491Q455 1491 385 1400T282 1143T249 751Q249 524 282 359T385 102T566 10Z" />
<glyph unicode="P" glyph-name="P" horiz-adv-x="1065" d="M582 0H64V32Q130 32 164 65T209 155T221 280V1221Q221 1289 210 1345T164 1435T64 1469V1501H653Q753 1501 828 1465T953 1369T1029 1233T1054 1078Q1054 999 1029 924T954 788T829 691T653 655H425V280Q425
212 437 156T482 66T582 32V0ZM579 687Q670 687 730 745T819 894T849 1085Q849 1181 819 1269T728 1413T579 1469H425V687H579Z" />
<glyph unicode="Q" glyph-name="Q" horiz-adv-x="1165" d="M774 -315Q723 -315 671 -294T565 -245T459 -196Q401 -173 350 -173Q303 -173 257 -199L245 -171L486 -15Q336 15 239 128T94 406T47 751Q47 897 78 1034T173 1282T335 1457T568 1523Q702 1523 800 1458T963
1282T1058 1035T1089 751Q1089 604 1058 467T963 220T801 44T568 -22L534 -21L419 -95Q452 -82 487 -82Q530 -82 575 -97T666 -132T759 -167T851 -183Q906 -183 958 -149L982 -165Q932 -250 880 -282T774 -315ZM568 10Q679 10 748 101T851 359T884 751Q884 976
851 1142T749 1400T568 1491Q457 1491 388 1400T285 1143T252 751Q252 524 285 359T387 102T568 10Z" />
<glyph unicode="R" glyph-name="R" horiz-adv-x="1224" d="M1238 0H719V32Q817 32 817 116Q817 173 771 280L579 735H426V280Q426 212 437 156T483 66T583 32V0H64V32Q131 32 164 65T209 155T221 280V1221Q221 1289 210 1345T165 1435T64 1469V1501H653Q785 1501
874 1447T1009 1307T1054 1126Q1054 1008 991 905T796 756L997 280Q1025 211 1055 155T1129 66T1238 32V0ZM579 767Q670 767 730 819T820 953T850 1123Q850 1210 820 1289T729 1419T579 1469H426V767H579Z" />
<glyph unicode="S" glyph-name="S" horiz-adv-x="1084" d="M567 -22Q450 -22 355 27Q330 40 309 53Q283 68 261 79T218 90Q152 90 150 0H117V474H149Q197 179 366 63Q454 10 540 10Q642 10 706 75T770 241Q770 349 724 428T606 570T453 692Q390 738 330 787T222
894T146 1023T117 1184Q117 1278 166 1355T308 1477T531 1523Q648 1523 743 1474Q768 1461 789 1449Q815 1433 837 1423T880 1412Q946 1412 948 1501H981V1027H949Q901 1322 732 1438Q645 1491 558 1491Q456 1491 392 1426T328 1261Q328 1153 374 1074T492 932T645
809Q708 763 768 714T876 608T952 479T981 317Q981 223 932 146T790 24T567 -22Z" />
<glyph unicode="T" glyph-name="T" horiz-adv-x="1112" d="M860 0H341V32Q408 32 441 65T486 155T498 280V1469H428Q356 1469 300 1428T206 1321T149 1178T129 1027H97V1501H1104V1027H1072Q1072 1100 1053 1177T995 1320T902 1427T773 1469H703V280Q703 212 714
156T759 66T860 32V0Z" />
<glyph unicode="U" glyph-name="U" horiz-adv-x="1212" d="M626 -22Q549 -22 476 2T344 75T251 196T216 366V1221Q216 1289 205 1345T160 1435T59 1469V1501H578V1469Q511 1469 478 1436T433 1346T421 1221V366Q421 262 462 192T570 86T708 50Q782 50 849 84T960
189T1003 366V1221Q1003 1289 992 1345T947 1435T846 1469H825V1501H1213V1469H1192Q1126 1469 1092 1436T1047 1346T1035 1221V366Q1035 269 1001 197T908 76T776 3T626 -22Z" />
<glyph unicode="V" glyph-name="V" horiz-adv-x="1094" d="M619 0H585L230 1221Q211 1290 183 1346T112 1435T2 1469V1501H520V1469Q461 1469 439 1442T416 1371Q416 1319 445 1221L692 370L939 1221Q964 1301 964 1361Q964 1410 940 1439T854 1469H834V1501H1222V1469H1202Q1136
1469 1093 1436T1021 1346T973 1221L619 0Z" />
<glyph unicode="W" glyph-name="W" horiz-adv-x="1779" d="M1304 0H1269L944 1122L619 0H585L230 1221Q211 1290 183 1346T112 1435T2 1469V1501H520V1469Q461 1469 439 1442T416 1371Q416 1319 445 1221L692 370L927 1181Q913 1231 896 1282T852 1375Q793 1469
687 1469V1501H1218V1469Q1149 1469 1125 1440T1100 1368Q1100 1335 1109 1298T1129 1224L1377 370L1624 1221Q1649 1300 1649 1360Q1649 1409 1625 1439T1539 1469H1519V1501H1907V1469H1887Q1821 1469 1777 1436T1705 1346T1658 1221L1304 0Z" />
<glyph unicode="X" glyph-name="X" horiz-adv-x="1330" d="M1351 0H803V32Q891 32 891 100Q891 158 824 280L634 627L444 280Q376 159 376 100Q376 60 401 46T483 32V0H95V32H113Q180 32 232 65T326 155T406 280L615 661L308 1221Q271 1290 229 1346T134 1435T15
1469V1501H563V1469Q474 1469 474 1401Q474 1342 542 1221L732 875L922 1221Q990 1342 990 1401Q990 1440 965 1454T883 1469V1501H1271V1469H1252Q1186 1469 1134 1436T1040 1346T960 1221L751 840L1058 280Q1095 211 1137 155T1232 66T1351 32V0Z" />
<glyph unicode="Y" glyph-name="Y" horiz-adv-x="1043" d="M834 0H316V32Q382 32 415 65T460 155T472 280V682L248 1221Q220 1290 185 1346T103 1435T-12 1469V1501H514V1469Q463 1469 442 1448T421 1392Q421 1337 470 1221L668 746L866 1221Q915 1337 915 1392Q915
1427 894 1448T822 1469H798V1501H1186V1469H1162Q1096 1469 1048 1436T965 1346T902 1221L677 682V280Q677 212 688 156T734 66T834 32V0Z" />
<glyph unicode="Z" glyph-name="Z" horiz-adv-x="1103" d="M1005 0H66L818 1469H458Q385 1469 329 1428T235 1321T178 1178T159 1027H127V1501H1066L315 32H674Q747 32 803 73T897 181T954 324T973 474H1005V0Z" />
<glyph unicode="[" glyph-name="bracketleft" horiz-adv-x="583" d="M533 -198H50V1699H533V1667H412Q345 1667 312 1634T267 1544T255 1420V82Q255 14 266 -42T311 -132T412 -166H533V-198Z" />
<glyph unicode="\" glyph-name="backslash" horiz-adv-x="682" d="M632 0H598L50 1501H84L632 0Z" />
<glyph unicode="]" glyph-name="bracketright" horiz-adv-x="583" d="M533 -198H50V-166H171Q237 -166 271 -133T316 -43T328 82V1420Q328 1488 317 1544T271 1633T171 1667H50V1699H533V-198Z" />
<glyph unicode="^" glyph-name="asciicircum" horiz-adv-x="617" d="M541 1071L308 1442L76 1071L50 1089L308 1501L567 1089L541 1071Z" />
<glyph unicode="_" glyph-name="underscore" horiz-adv-x="790" d="M740 -54H50V-22H740V-54Z" />
<glyph unicode="`" glyph-name="grave" horiz-adv-x="402" d="M352 1071L50 1228L186 1278L352 1071Z" />
<glyph unicode="a" glyph-name="a" horiz-adv-x="933" d="M329 -22Q238 -22 177 11T84 102T52 227Q52 328 111 426T291 599T597 704V724Q597 818 570 875T497 959T398 986Q334 986 274 956T175 857Q196 865 222 865Q268 865 300 833T332 755Q332 709 300 677T222
645Q164 645 136 681T108 771Q108 828 144 890T255 995T443 1038Q532 1038 614 1004T749 901T802 724V404Q802 336 813 280T859 190T959 156V124Q878 124 778 85T629 0H597V133Q555 63 481 21T329 -22ZM448 113Q481 113 529 131T597 178V672Q435 642 347 535T258
300Q258 248 278 206T341 138T448 113Z" />
<glyph unicode="b" glyph-name="b" horiz-adv-x="1046" d="M573 -22Q497 -22 434 11T338 113L189 0H157V1098Q157 1166 146 1222T101 1311T1 1345V1377Q81 1377 181 1416T330 1501H362V870Q400 953 469 995T619 1038Q714 1038 784 997T900 885T970 726T993 542Q993
439 966 339T887 157T755 27T573 -22ZM507 50Q575 50 627 93T714 209T767 371T786 552Q786 658 760 753T681 907T545 966Q498 966 456 938T388 853T362 714V141Q382 95 421 73T507 50Z" />
<glyph unicode="c" glyph-name="c" horiz-adv-x="859" d="M460 -22Q359 -22 281 23T150 143T70 313T43 507Q43 606 69 701T148 872T283 993T476 1038Q560 1038 622 1012T725 945T786 856T807 764Q807 714 779 680T694 645Q648 645 616 677T584 755Q584 801 616
833T694 865Q720 865 741 857Q702 925 635 965T491 1006Q410 1006 356 943T275 778T247 563Q247 468 265 376T318 210T408 90T533 45Q616 45 686 111T780 305L810 296Q776 136 677 57T460 -22Z" />
<glyph unicode="d" glyph-name="d" horiz-adv-x="1052" d="M411 -22Q316 -22 246 19T129 131T60 290T37 474Q37 578 63 678T143 860T274 989T457 1038Q521 1038 576 1015T667 945V1098Q667 1166 656 1222T611 1311T511 1345V1377Q591 1377 691 1416T840 1501H872V0H840L667
146Q629 63 560 21T411 -22ZM485 50Q533 50 574 79T641 165T667 305V875Q647 921 609 943T523 966Q455 966 403 923T316 807T262 645T244 465Q244 358 270 263T349 109T485 50Z" />
<glyph unicode="e" glyph-name="e" horiz-adv-x="866" d="M461 -22Q359 -22 264 37T108 214T45 508Q45 608 70 702T147 872T278 993T467 1038Q589 1038 668 983T786 835T825 632H254Q250 573 250 508Q251 351 291 248T396 95T534 45Q617 45 687 111T781 305L811
296Q776 136 678 57T461 -22ZM613 664Q610 1006 467 1006Q374 1006 323 915T257 664H613Z" />
<glyph unicode="f" glyph-name="f" horiz-adv-x="640" d="M550 0H32V32Q98 32 131 65T176 155T188 280V984H73V1016H188V1210Q188 1315 232 1385T345 1489T486 1524Q569 1524 622 1492T702 1410T728 1311Q728 1253 698 1210T611 1166Q563 1166 539 1195T514 1260Q514
1298 541 1331T624 1364Q649 1364 671 1355Q656 1409 621 1439T544 1469Q507 1469 473 1442T416 1358T393 1210V1016H581V984H393V280Q393 212 404 156T450 66T550 32V0Z" />
<glyph unicode="g" glyph-name="g" horiz-adv-x="991" d="M391 -572Q270 -572 164 -540T-8 -444T-74 -281Q-74 -200 -6 -133T192 -40L68 152L270 240Q187 301 147 399T107 609Q107 690 128 766T194 904T307 1001T469 1038Q541 1038 598 1016H907V984H661Q748 924
789 825T831 614V602Q831 524 810 450T744 314T631 216T469 180Q374 180 305 218L141 136Q232 124 351 118Q437 114 525 107T695 82T840 33T943 -51T981 -183Q981 -279 930 -351T793 -473T603 -547T391 -572ZM495 -520Q592 -520 684 -487T835 -396T894 -259Q894
-206 852 -174T742 -124T594 -97T433 -82Q299 -74 216 -55Q135 -122 135 -230Q135 -302 179 -368T305 -477T495 -520ZM469 213Q524 213 559 261T610 399T627 609Q627 729 611 818T559 956T469 1005Q414 1005 380 956T329 819T312 609Q312 488 328 399T379 262T469
213Z" />
<glyph unicode="h" glyph-name="h" horiz-adv-x="1170" d="M1149 0H630V32Q697 32 730 65T776 155Q787 207 787 269V705Q785 837 733 901T610 966Q539 966 473 902T382 711V280Q382 212 393 156T439 66T539 32V0H21V32Q87 32 121 65T166 155T178 280V1098Q178
1166 167 1222T121 1311T21 1345V1377Q101 1377 201 1416T350 1501H382V816Q432 925 518 981T697 1038Q773 1038 840 1002T950 893T992 705V280Q992 212 1003 156T1048 66T1149 32V0Z" />
<glyph unicode="i" glyph-name="i" horiz-adv-x="586" d="M553 0H35V32Q101 32 135 65T180 155T192 280V612Q192 680 181 736T135 826T35 860V892Q116 892 216 931T365 1016H397V280Q397 212 408 156T453 66T553 32V0ZM270 1077Q218 1077 181 1116T144 1210Q144
1265 181 1304T270 1343Q322 1343 359 1304T396 1210Q396 1155 359 1116T270 1077Z" />
<glyph unicode="j" glyph-name="j" horiz-adv-x="580" d="M101 -508Q17 -508 -36 -476T-116 -394T-142 -295Q-142 -237 -112 -194T-25 -150Q23 -150 47 -179T72 -244Q72 -282 45 -315T-38 -348Q-63 -348 -85 -339Q-69 -393 -34 -423T42 -453Q79 -453 113 -426T170
-342T193 -194V612Q193 680 182 736T137 826T36 860V892Q117 892 217 931T366 1016H398V-194Q398 -299 354 -369T241 -473T101 -508ZM271 1077Q219 1077 182 1116T145 1210Q145 1265 182 1304T271 1343Q324 1343 361 1304T398 1210Q398 1155 361 1116T271 1077Z"
/>
<glyph unicode="k" glyph-name="k" horiz-adv-x="1121" d="M1146 0H627L625 32Q714 32 714 101Q714 160 650 280L497 565L382 413V280Q382 212 393 156T439 66T539 32V0H21V32Q88 32 121 65T165 155T177 280V1098Q177 1166 166 1222T121 1311T21 1345V1377Q101
1377 201 1416T350 1501H382V461Q483 599 585 736T687 932Q687 964 663 974T588 984V1016H976V984Q906 984 850 955T740 872T629 741L876 280Q911 211 948 155T1031 66T1143 32L1146 0Z" />
<glyph unicode="l" glyph-name="l" horiz-adv-x="581" d="M540 0H21V32Q88 32 121 65T166 155T178 280V1098Q178 1166 167 1222T122 1311T21 1345V1377Q102 1377 202 1416T351 1501H383V280Q383 212 394 156T439 66T540 32V0Z" />
<glyph unicode="m" glyph-name="m" horiz-adv-x="1795" d="M1778 0H1260V32Q1326 32 1360 65T1406 155Q1417 207 1417 269V705Q1415 837 1362 901T1240 966Q1168 966 1102 902T1012 711V280Q1012 212 1023 156T1068 66T1169 32V0H650V32Q717 32 750 65T796 155Q807
207 807 269V705Q805 837 753 901T630 966Q559 966 493 902T402 711V280Q402 212 413 156T459 66T559 32V0H41V32Q107 32 141 65T186 155T198 280V612Q198 680 187 736T141 826T41 860V892Q121 892 221 931T370 1016H402V816Q452 925 538 981T717 1038Q814 1038
895 979T1004 795Q1051 915 1140 976T1326 1038Q1402 1038 1469 1002T1579 893T1622 705V280Q1622 212 1633 156T1678 66T1778 32V0Z" />
<glyph unicode="n" glyph-name="n" horiz-adv-x="1190" d="M1169 0H651V32Q717 32 751 65T797 155Q808 207 808 269V705Q806 837 753 901T631 966Q559 966 493 902T403 711V280Q403 212 414 156T459 66T560 32V0H41V32Q108 32 141 65T186 155T198 280V612Q198
680 187 736T142 826T41 860V892Q122 892 222 931T371 1016H403V816Q453 925 539 981T717 1038Q793 1038 860 1002T970 893T1013 705V280Q1013 212 1024 156T1069 66T1169 32V0Z" />
<glyph unicode="o" glyph-name="o" horiz-adv-x="935" d="M468 -22Q360 -22 280 23T149 143T72 313T46 508Q46 608 71 702T148 872T280 993T468 1038Q577 1038 656 993T788 873T865 703T890 508Q890 408 865 314T788 144T657 23T468 -22ZM468 10Q544 10 592 71T662
245T685 508Q685 659 663 771T592 944T468 1006Q392 1006 344 945T274 772T251 508Q251 356 273 245T344 72T468 10Z" />
<glyph unicode="p" glyph-name="p" horiz-adv-x="1072" d="M541 -485H22V-453Q89 -453 122 -420T167 -330T179 -205V612Q179 680 168 736T123 826T22 860V892Q103 892 203 931T352 1016H384V870Q422 953 491 995T640 1038Q733 1038 803 998T920 891T991 737T1015
558Q1015 453 989 350T910 163T779 29T594 -22Q531 -22 476 1T384 71V-205Q384 -273 395 -329T440 -419T541 -453V-485ZM528 50Q596 50 648 93T735 209T789 369T807 549Q806 661 781 755T703 908T567 966Q519 966 478 937T410 852T384 711V141Q404 95 443 73T528
50Z" />
<glyph unicode="q" glyph-name="q" horiz-adv-x="1061" d="M492 50Q540 50 581 79T648 165T674 305V875Q654 921 616 943T530 966Q462 966 410 923T323 807T269 645T251 465Q251 358 277 263T356 109T492 50ZM1036 -485H518V-453Q584 -453 617 -420T662 -330T674
-205V146Q636 63 567 21T418 -22Q323 -22 253 19T136 131T67 290T44 474Q44 578 70 678T150 860T281 989T464 1038Q534 1038 592 1011T686 927Q794 966 847 1016H879V-205Q879 -273 890 -329T936 -419T1036 -453V-485Z" />
<glyph unicode="r" glyph-name="r" horiz-adv-x="895" d="M560 0H41V32Q108 32 141 65T186 155T198 280V612Q198 680 187 736T142 826T41 860V892Q122 892 222 931T371 1016H403V847Q446 947 523 992T678 1038Q739 1038 779 1016T840 959T861 890Q861 836 828
810T754 783Q714 783 680 809T646 886Q646 912 660 936T705 979Q681 998 637 998Q566 998 514 952T432 838T403 708V280Q403 212 414 156T459 66T560 32V0Z" />
<glyph unicode="s" glyph-name="s" horiz-adv-x="916" d="M472 -22Q357 -22 241 26Q192 47 168 47Q144 47 144 22V1H112V376H144Q144 245 184 165T287 47T412 10Q474 10 517 35T582 101T605 188Q605 234 575 274T496 351T390 427Q285 493 201 574T112 770Q112
843 150 903T262 1001T448 1038Q569 1038 679 991Q728 969 752 969Q776 969 776 994V1016H808V640H776Q776 771 736 851T634 969T508 1006Q446 1006 403 981T338 916T315 828Q315 782 345 742T424 665T530 589Q635 523 719 442T808 246Q808 174 770 114T658 16T472
-22Z" />
<glyph unicode="t" glyph-name="t" horiz-adv-x="627" d="M399 -22Q313 -22 261 15T186 117T162 270V736Q162 804 151 860T106 950T5 984V1016Q106 1016 200 1109T335 1345H367V1016H513V984H367V270Q367 181 384 133T430 68T491 50Q520 50 542 66T581 106T608
154L630 142Q596 72 539 25T399 -22Z" />
<glyph unicode="u" glyph-name="u" horiz-adv-x="1118" d="M452 -22Q376 -22 309 14T199 123T157 311V612Q157 680 146 736T100 826T0 860V892Q80 892 180 931T329 1016H361V311Q364 179 416 115T538 50Q610 50 676 114T766 305V612Q766 680 755 736T710 826T609
860V892Q690 892 790 931T939 1016H971V404Q971 336 982 280T1027 190T1128 156V124Q1047 124 947 85T798 0H766V200Q717 91 631 35T452 -22Z" />
<glyph unicode="v" glyph-name="v" horiz-adv-x="961" d="M481 0H447L191 736Q168 805 138 861T64 950T-44 984V1016H463V984Q412 984 391 961T370 899Q370 844 409 736L557 313L705 736Q743 844 743 898Q743 937 723 960T650 984H627V1016H995V984H972Q909 984
866 951T792 861T738 736L481 0Z" />
<glyph unicode="w" glyph-name="w" horiz-adv-x="1494" d="M1016 0H981L732 716L482 0H447L191 736Q168 805 138 861T64 950T-44 984V1016H463V984Q412 984 391 961T370 899Q370 844 409 736L557 313L802 1016H846L1091 313L1239 736Q1277 844 1277 898Q1277 937
1257 960T1184 984H1161V1016H1530V984H1507Q1444 984 1401 951T1326 861T1272 736L1016 0Z" />
<glyph unicode="x" glyph-name="x" horiz-adv-x="1139" d="M1151 0H593V32Q676 32 676 92Q676 126 653 174T593 281T520 397L449 287Q363 148 363 92Q363 57 386 45T464 32V0H76V32H94Q161 32 216 65T318 155T408 280L501 427Q403 582 306 737T113 950Q59 984
-8 984V1016H550V984Q467 984 467 924Q467 890 490 842T549 736T623 619L694 729Q780 868 780 924Q780 959 757 971T679 984V1016H1067V984H1048Q982 984 927 950Q832 892 735 736Q659 617 642 589L837 280Q880 211 927 155T1029 66T1151 32V0Z" />
<glyph unicode="y" glyph-name="y" horiz-adv-x="973" d="M170 -372Q95 -372 45 -333T-7 -232Q-7 -180 25 -150T97 -119Q140 -119 172 -146T207 -226Q207 -281 150 -315Q183 -331 213 -331Q259 -331 296 -299Q363 -242 415 -117Q435 -68 459 0L202 736Q179 805
149 861T75 950T-32 984V1016H475V984Q423 984 402 961T381 898Q381 844 420 736L568 313L716 736Q754 845 754 899Q754 938 734 961T661 984H638V1016H1007V984H984Q921 984 877 951T803 861T749 736L482 -32Q462 -90 437 -149T376 -258T290 -340T170 -372Z" />
<glyph unicode="z" glyph-name="z" horiz-adv-x="930" d="M820 0H67L601 984H429Q316 984 251 954T158 850T130 640H98V1016H850L316 32H488Q601 32 666 62T760 166T788 376H820V0Z" />
<glyph unicode="{" glyph-name="braceleft" horiz-adv-x="701" d="M651 -198H359Q269 -198 229 -162T179 -53T169 133V523Q169 614 145 661T93 728T50 751Q65 753 93 773Q169 825 169 978V1369Q169 1481 179 1554T229 1663T359 1699H651V1667H475Q374 1667 374
1565V978Q374 933 363 884Q337 773 247 751Q296 739 324 702Q374 636 374 523V-64Q374 -166 475 -166H651V-198Z" />
<glyph unicode="|" glyph-name="bar" horiz-adv-x="932" d="M482 -397H450V1501H482V-397Z" />
<glyph unicode="}" glyph-name="braceright" horiz-adv-x="701" d="M342 -198H50V-166H226Q327 -166 327 -64V523Q327 568 338 617Q363 728 454 751Q405 763 377 799Q327 865 327 978V1565Q327 1667 226 1667H50V1699H342Q432 1699 472 1664T522 1555T532 1369V978Q532
825 608 773Q636 753 651 751Q636 748 608 729T556 662T532 523V133Q532 20 522 -53T472 -162T342 -198Z" />
<glyph unicode="~" glyph-name="asciitilde" horiz-adv-x="648" d="M464 635Q419 635 378 652T297 691T221 728T145 744Q80 744 50 687Q50 772 91 819T182 866Q228 866 270 849T351 810T427 773T502 757Q565 757 598 820Q598 734 557 685T464 635Z" />
</font>
</defs>
</svg>
