<svg width="230" height="41" viewBox="0 0 230 41" fill="none" xmlns="http://www.w3.org/2000/svg">
<g id="Camada_1" clip-path="url(#clip0_11_339)">
<g id="Group">
<g id="Group_2">
<path id="Vector" d="M31.9053 35.6341H11.9161C9.20999 35.6341 7.01172 33.408 7.01172 30.6675V18.4696C7.01172 17.6252 7.68636 16.942 8.52019 16.942C9.35402 16.942 10.0287 17.6252 10.0287 18.4696V30.6675C10.0287 31.7192 10.8701 32.5712 11.9086 32.5712H31.8977C32.7315 32.5712 33.4062 33.2544 33.4062 34.0989C33.4062 34.9433 32.7315 35.6265 31.8977 35.6265L31.9053 35.6341Z" fill="#EB5E28"/>
<path id="Vector_2" d="M43.7079 35.6341H37.3254C36.4915 35.6341 35.8169 34.9509 35.8169 34.1065C35.8169 33.2621 36.4915 32.5789 37.3254 32.5789H43.7079C44.7464 32.5789 45.5878 31.7268 45.5878 30.6751V6.26399C45.5878 5.21231 44.7464 4.36023 43.7079 4.36023H28.7673C27.9334 4.36023 27.2588 3.67702 27.2588 2.83261C27.2588 1.9882 27.9334 1.30499 28.7673 1.30499H43.7079C46.4141 1.30499 48.6124 3.53117 48.6124 6.27167V30.6751C48.6124 33.4156 46.4141 35.6418 43.7079 35.6418V35.6341Z" fill="#EE6032"/>
<path id="Vector_3" d="M28.646 5.64988C30.1866 5.64988 31.4355 4.38511 31.4355 2.82494C31.4355 1.26477 30.1866 0 28.646 0C27.1054 0 25.8564 1.26477 25.8564 2.82494C25.8564 4.38511 27.1054 5.64988 28.646 5.64988Z" fill="#EB5E28"/>
<path id="Vector_4" d="M8.52004 19.9972C4.22203 19.9972 0.727539 16.4507 0.727539 12.0981C0.727539 11.2537 1.40218 10.5705 2.23601 10.5705C3.06984 10.5705 3.74448 11.2537 3.74448 12.0981C3.74448 14.7618 5.88211 16.9266 8.51246 16.9266C11.1428 16.9266 13.2804 14.7618 13.2804 12.0981C13.2804 11.2537 13.9551 10.5705 14.7889 10.5705C15.6227 10.5705 16.2974 11.2537 16.2974 12.0981C16.2974 16.4507 12.8029 19.9895 8.50488 19.9895L8.52004 19.9972Z" fill="#EB5E28"/>
<path id="Vector_5" d="M14.8045 13.7793C16.0395 13.7793 17.0407 12.7654 17.0407 11.5147C17.0407 10.264 16.0395 9.25015 14.8045 9.25015C13.5695 9.25015 12.5684 10.264 12.5684 11.5147C12.5684 12.7654 13.5695 13.7793 14.8045 13.7793Z" fill="#EB5E28"/>
<path id="Vector_6" d="M2.23617 13.7793C3.47118 13.7793 4.47235 12.7654 4.47235 11.5147C4.47235 10.264 3.47118 9.25015 2.23617 9.25015C1.00117 9.25015 0 10.264 0 11.5147C0 12.7654 1.00117 13.7793 2.23617 13.7793Z" fill="#EB5E28"/>
<path id="Vector_7" d="M32.5045 41C32.2544 41 32.0042 40.9539 31.7617 40.8618C30.9278 40.5471 30.3896 39.7641 30.3896 38.8583V34.0912C30.3896 33.2468 31.0643 32.5636 31.8981 32.5636C32.7319 32.5636 33.4066 33.2468 33.4066 34.0912V36.3481L36.1658 33.0932C36.7116 32.4484 37.6667 32.3793 38.2959 32.932C38.9326 33.4847 39.0008 34.452 38.455 35.0891L34.0812 40.2477C33.6719 40.7313 33.0882 40.9923 32.4894 40.9923L32.5045 41Z" fill="#EB5E28"/>
</g>
<g id="Group_3">
<path id="Vector_8" d="M36.0135 23.1753C37.2485 23.1753 38.2497 22.1614 38.2497 20.9107C38.2497 19.66 37.2485 18.6461 36.0135 18.6461C34.7785 18.6461 33.7773 19.66 33.7773 20.9107C33.7773 22.1614 34.7785 23.1753 36.0135 23.1753Z" fill="#EB5E28"/>
<path id="Vector_9" d="M29.1004 23.1753C30.3354 23.1753 31.3366 22.1614 31.3366 20.9107C31.3366 19.66 30.3354 18.6461 29.1004 18.6461C27.8654 18.6461 26.8643 19.66 26.8643 20.9107C26.8643 22.1614 27.8654 23.1753 29.1004 23.1753Z" fill="#EB5E28"/>
<path id="Vector_10" d="M22.1873 23.1753C23.4224 23.1753 24.4235 22.1614 24.4235 20.9107C24.4235 19.66 23.4224 18.6461 22.1873 18.6461C20.9523 18.6461 19.9512 19.66 19.9512 20.9107C19.9512 22.1614 20.9523 23.1753 22.1873 23.1753Z" fill="#EB5E28"/>
</g>
</g>
<path id="Vector_11" d="M79.4718 1.35873H62.583V35.5881H79.4718C88.7955 35.5881 96.3758 27.9116 96.3758 18.4773C96.3758 9.04288 88.7955 1.35873 79.4718 1.35873ZM79.4718 30.2606H67.8513V6.69388H79.4718C85.8923 6.69388 91.1075 11.9753 91.1075 18.4773C91.1075 24.9792 85.8923 30.2606 79.4718 30.2606Z" fill="#252422"/>
<path id="Vector_12" d="M136.998 35.5958C130.252 35.5958 124.764 30.038 124.764 23.2059C124.764 16.3739 130.252 10.8161 136.998 10.8161C140.136 10.8161 143.123 12.0213 145.405 14.2015L141.789 18.0781C140.493 16.8345 138.787 16.1513 137.006 16.1513C133.163 16.1513 130.04 19.314 130.04 23.2059C130.04 27.0979 133.163 30.2606 137.006 30.2606C139.128 30.2606 141.107 29.3011 142.441 27.6199L146.542 30.9592C144.207 33.8993 140.728 35.5881 137.006 35.5881L136.998 35.5958Z" fill="#252422"/>
<g id="Group_4">
<path id="Vector_13" d="M194.009 39.3265L186.701 31.9187L188.74 30.2222V23.1599H194.009V39.3265Z" fill="#252422"/>
<path id="Vector_14" d="M181.767 35.5574C175.02 35.5574 169.524 29.9996 169.524 23.1599C169.524 19.8513 170.798 16.7347 173.11 14.3934C175.422 12.052 178.499 10.7624 181.767 10.7624C185.034 10.7624 188.111 12.052 190.423 14.3934C192.735 16.7347 194.009 19.8436 194.009 23.1599H188.74C188.74 21.2715 188.013 19.4982 186.701 18.1702C185.382 16.8345 183.631 16.0975 181.767 16.0975C179.902 16.0975 178.151 16.8345 176.832 18.1702C175.513 19.5059 174.793 21.2791 174.793 23.1599C174.793 27.0518 177.923 30.2222 181.767 30.2222C183.631 30.2222 185.382 29.4853 186.701 28.1496L190.423 31.9187C188.111 34.26 185.034 35.5497 181.767 35.5497V35.5574Z" fill="#252422"/>
</g>
<g id="Group_5">
<path id="Vector_15" d="M180.061 1.38177H146.269V6.71692H180.061V1.38177Z" fill="#252422"/>
<path id="Vector_16" d="M165.78 4.05319H160.512V35.6418H165.78V4.05319Z" fill="#252422"/>
</g>
<path id="Vector_17" d="M202.938 1.35873H197.67V35.6188H202.938V1.35873Z" fill="#252422"/>
<g id="Group_6">
<path id="Vector_18" d="M211.982 1.35873H206.714V35.6188H211.982V1.35873Z" fill="#252422"/>
<path id="Vector_19" d="M227.954 10.7624L216.978 20.0125L212.938 23.4286L211.975 24.2346L210.944 25.102L207.745 20.8646L211.975 17.3027L219.729 10.7624H227.954Z" fill="#252422"/>
<path id="Vector_20" d="M230 35.5958H223.133L213.005 23.5053L211.974 22.2848L211.33 21.5095L211.974 20.9875L215.446 18.1855L217.19 20.2659L230 35.5958Z" fill="#252422"/>
</g>
<path id="Vector_21" d="M110.573 10.8008C103.827 10.8008 98.3311 16.3585 98.3311 23.1983C98.3311 30.038 103.827 35.5881 110.573 35.5881C117.32 35.5881 122.815 30.0303 122.815 23.1983C122.815 16.3662 117.327 10.8008 110.573 10.8008ZM110.573 30.2606C106.73 30.2606 103.599 27.0902 103.599 23.1983C103.599 19.3063 106.73 16.1359 110.573 16.1359C114.416 16.1359 117.547 19.3063 117.547 23.1983C117.547 27.0902 114.416 30.2606 110.573 30.2606Z" fill="#252422"/>
</g>
<defs>
<clipPath id="clip0_11_339">
<rect width="230" height="41" fill="white"/>
</clipPath>
</defs>
</svg>
