<svg width="142" height="121" viewBox="0 0 142 121" fill="none" xmlns="http://www.w3.org/2000/svg">
<g clip-path="url(#clip0_2006_635)">
<path d="M71.819 116.474C71.7518 116.474 71.6847 116.458 71.6207 116.423C71.4479 116.34 70.6513 116.154 69.218 115.875C67.7847 115.59 66.4601 115.452 65.222 115.452C62.0386 115.452 59.4791 116.413 57.5179 118.348C56.974 118.886 56.5101 119.463 56.1198 120.071C55.8863 120.417 55.4927 120.625 55.0768 120.625C54.3858 120.625 53.7875 120.446 53.2724 120.097C52.7605 119.741 52.3318 119.213 51.9927 118.511C51.3208 117.099 50.9913 116.314 50.9913 116.144L38.0595 84.0812H37.0261L23.8736 117.297C23.2753 118.803 22.725 119.732 22.2323 120.09C21.7588 120.42 21.1893 120.603 20.5078 120.625H20.4343C18.8762 120.625 17.6092 119.36 17.6092 117.803V85.3624H27.2041C27.8024 85.3624 28.2407 85.4201 28.5126 85.5258C28.7846 85.6347 28.9253 85.8813 28.9253 86.2657C28.9253 86.7141 28.8869 87.0729 28.8262 87.3419H29.1973L30.9505 82.8896H30.5762C30.3714 83.4918 30.0643 83.8538 29.6388 83.9819C29.2165 84.1036 28.5158 84.1677 27.5592 84.1677H3.14496C2.17236 84.1677 1.55488 84.1036 1.26054 83.9819C0.969403 83.8538 0.671864 83.4918 0.371125 82.8896H0L1.75005 87.3419H2.12437C1.99 86.8871 1.92601 86.5604 1.92601 86.3394C1.92601 85.907 2.06358 85.6347 2.34512 85.5258C2.62987 85.4201 3.23454 85.3624 4.16556 85.3624H13.3605V117.803C13.3605 119.36 12.0999 120.625 10.5419 120.625V121H25.8476V120.625C25.0317 120.625 24.6254 120.35 24.6254 119.802C24.6254 119.568 24.8206 118.953 25.2013 117.947L30.7714 104.049H41.518L46.7329 117.172C46.7553 117.23 46.7649 117.256 46.8289 117.409C46.8865 117.56 46.9281 117.669 46.9697 117.765C47.1648 118.255 47.2992 118.601 47.408 118.876C47.6159 119.411 47.504 120.042 47.0529 120.398C46.8993 120.532 46.7041 120.625 46.4834 120.625V121H57.1052C57.4795 120.196 57.9978 119.463 58.6953 118.787C60.1638 117.345 62.1602 116.621 64.6717 116.621C66.169 116.621 67.5159 116.887 68.7061 117.409C69.8962 117.938 70.9552 118.684 71.8798 119.652C72.5485 120.356 72.9804 120.805 73.1564 121H73.5371L71.819 116.474ZM31.1201 103.024L36.1047 90.4746L41.0989 103.024H31.1201Z" fill="#E9E2D6"/>
<path d="M73.6301 96.8357C74.913 98.37 75.5625 100.337 75.5625 102.733C75.5625 103.732 75.4473 104.683 75.2137 105.587C74.9802 106.503 74.6091 107.38 74.094 108.213C73.5725 109.056 72.9518 109.824 72.2319 110.51C71.5057 111.202 70.7666 111.733 70.018 112.086C69.2693 112.448 68.0888 112.717 66.4731 112.896C64.8574 113.085 63.7888 113.178 63.277 113.178H53.4645L49.4014 103.024H50.262C51.7209 106.173 53.6853 108.575 55.2274 109.898C56.8623 111.298 60.4999 112.002 63.952 112.002C67.081 112.002 69.4549 111.256 71.0834 109.77C72.7086 108.29 73.5149 106.506 73.5149 104.421C73.5149 103.152 73.2333 102.079 72.667 101.182C72.1008 100.292 71.3105 99.5071 70.2899 98.8344C69.2789 98.1554 67.3561 97.3322 64.5311 96.3584C61.7157 95.3751 59.7417 94.5103 58.5963 93.7671C57.4573 93.024 56.4975 91.9094 55.7361 90.4167C54.965 88.9273 54.5875 87.409 54.5875 85.8587C54.5875 85.4936 54.4403 85.1669 54.2004 84.9266C53.9604 84.6864 53.6341 84.539 53.2694 84.539H52.5783V84.1675H58.5515V84.539C57.5757 84.539 56.8495 85.3462 56.8495 86.2463C56.8495 86.4641 56.8942 86.6979 56.9902 86.9221C57.1374 87.2617 57.3134 87.5788 57.5181 87.8831C58.206 88.8888 59.6521 89.8274 61.85 90.7018C65.6189 91.9734 68.2071 92.9344 69.5989 93.575C70.997 94.2156 72.3343 95.3046 73.6301 96.8357Z" fill="#E9E2D6"/>
<path d="M22.3155 5.64392C21.5348 4.40112 20.3095 3.36012 18.617 2.53051C16.9278 1.6881 14.2147 1.2749 10.4875 1.2749H0V1.65287C0.713455 1.65287 1.36292 1.94115 1.83323 2.412C2.30033 2.87965 2.59787 3.52988 2.59787 4.24737V35.1316C2.59787 36.5666 1.43651 37.7293 0 37.7293V38.1137H9.71643V37.7293C8.91659 37.7293 8.20314 37.4122 7.68484 36.8933C7.16015 36.368 6.84341 35.6473 6.84341 34.8561V19.856H11.5145C15.1905 19.9201 18.1051 19.1706 20.2615 17.6043C22.4051 16.0283 23.48 13.6869 23.48 10.5639C23.48 8.5267 23.0897 6.88672 22.3155 5.64392ZM17.1965 17.3352C15.7376 18.7606 13.8404 19.4813 11.5145 19.4813H6.84341V2.53051H9.46368C12.0967 2.53051 14.0579 2.89246 15.3313 3.62597C16.6174 4.36268 17.6156 5.42931 18.3163 6.84188C19.0265 8.25124 19.3849 9.86239 19.3849 11.6753C19.3849 14.0136 18.6554 15.8906 17.1965 17.3352Z" fill="#E9E2D6"/>
<path d="M61.492 35.1636C59.8955 36.1149 58.4814 36.5826 57.2464 36.5826C56.0115 36.5826 54.7061 36.2142 53.3752 35.4679C52.0443 34.7312 50.1567 32.6652 47.7156 29.2859C45.2744 25.9067 43.774 23.7158 43.2077 22.7164L40.613 18.7125C42.6574 17.5466 44.2475 16.1212 45.3704 14.4236C46.4934 12.7324 47.0565 11.3038 47.0565 9.43318C47.0565 7.7964 46.7398 6.41266 46.1063 5.29158C45.476 4.16409 44.5386 3.26723 43.2973 2.61059C42.0495 1.95396 40.8497 1.56638 39.6628 1.44787C38.479 1.33256 36.5658 1.2749 33.9168 1.2749H23.4805V1.65287H23.5221C24.9618 1.66248 26.1167 2.84762 26.1167 4.29542V35.0899C26.1167 36.5505 24.9394 37.7293 23.4805 37.7293V38.1137H32.9665V37.7293C32.2435 37.7293 31.6004 37.441 31.1269 36.9702C30.6598 36.5025 30.3687 35.8523 30.3687 35.1316V20.1283H33.3537L36.6266 20.0258L40.3219 25.7273C40.3219 25.7593 40.3442 25.7946 40.3794 25.8266C44.1739 31.4929 46.8357 34.9554 48.365 36.2142C49.9007 37.4794 51.7243 38.1137 53.8583 38.1137C57.0545 38.1137 59.6459 37.2873 61.6455 35.6569L61.492 35.1636ZM34.2239 19.177H30.3687V2.24864H33.4017C37.0329 2.24864 39.5764 3.26402 41.0193 5.28838C42.459 7.31593 43.1789 9.10646 43.1789 11.3775C43.1789 13.6484 42.4494 15.5927 40.9873 17.0277C39.5124 18.4627 37.2665 19.177 34.2239 19.177Z" fill="#E9E2D6"/>
<path d="M64.7994 22.9531C64.7994 25.0415 66.4886 26.7264 68.5682 26.7264C67.5252 26.7264 66.5846 27.1556 65.9032 27.8378C65.2217 28.5233 64.7994 29.465 64.7994 30.5092C64.7994 29.465 64.3739 28.5233 63.6924 27.8378C63.0141 27.1556 62.0671 26.7264 61.0273 26.7264C62.0671 26.7264 63.0141 26.3068 63.6924 25.6245C64.3739 24.9454 64.7994 23.9973 64.7994 22.9531Z" fill="#E9E2D6"/>
<path d="M48.0029 1.27469H49.4106L49.4074 1.27148H53.4482C53.4482 1.27148 53.4482 1.27469 53.4514 1.27469H55.5342L55.5406 1.66867C54.9807 1.66867 54.6 2.12671 54.6 2.61358C54.6 2.81858 54.6672 3.02998 54.8175 3.21256C57.3546 6.32276 60.8227 8.23501 64.6524 8.23501C67.0807 8.23501 69.3682 7.46306 71.3646 6.09854C71.8285 5.78144 72.4684 5.96401 72.6731 6.49573C72.8459 6.92814 72.6379 7.41822 72.2092 7.6104C69.8961 8.6386 67.343 9.20875 64.6524 9.20875C59.0631 9.20875 54.0497 6.74236 50.636 2.841C49.9769 2.08507 49.0107 1.66867 48.0093 1.66867L48.0029 1.27469Z" fill="#E9E2D6"/>
<path d="M125.015 35.6152C124.339 34.2122 124.007 33.4147 124.007 33.2513L111.081 1.19155H110.042L96.8922 34.398C96.2939 35.9099 95.7405 36.8356 95.2446 37.1975C94.7487 37.553 94.128 37.7292 93.3953 37.7292C92.6627 37.7292 91.9556 37.4185 91.4565 36.9252C90.9574 36.4288 90.6471 35.7369 90.6471 34.9778V2.47279H100.248C100.843 2.47279 101.279 2.53365 101.55 2.63614C101.829 2.74505 101.963 2.98848 101.963 3.37926C101.963 3.82769 101.931 4.18003 101.864 4.4523H102.242L103.995 0H103.611C103.409 0.602181 103.102 0.957725 102.68 1.08905C102.254 1.21397 101.563 1.27483 100.594 1.27483H76.186C75.2198 1.27483 74.5927 1.21397 74.2984 1.08905C74.0073 0.957725 73.7161 0.602181 73.4154 0H73.0411L74.7847 4.4523H75.1686C75.0343 3.99746 74.9639 3.66434 74.9639 3.44973C74.9639 3.01731 75.1078 2.74505 75.3894 2.63614C75.6645 2.53365 76.2724 2.47279 77.2098 2.47279H86.4048V35.0386C86.3983 36.4768 85.2818 37.6427 83.8645 37.7228C83.1702 37.7228 82.6391 37.1527 82.6391 36.496C82.6391 36.3903 82.6519 36.2846 82.6807 36.1789C83.0646 34.6895 83.2662 33.1264 83.2662 31.5184C83.2662 21.2237 74.9319 12.8764 64.6524 12.8764C57.5434 12.8764 51.3655 16.8675 48.2269 22.7323C48.0733 23.0142 48.0029 23.3249 48.0029 23.6292C48.0029 24.0104 48.1117 24.3883 48.3261 24.7151C49.2155 26.0636 51.2503 25.8105 51.7974 24.2922C53.9985 18.1391 58.9255 13.8534 64.6524 13.8534C72.43 13.8534 78.7391 21.7618 78.7391 31.5184C78.7391 33.1392 78.5663 34.7087 78.2368 36.1981C78.0384 37.0886 77.245 37.7228 76.3332 37.7228L76.3428 38.1136H98.8694V37.7292C98.0472 37.7292 97.6441 37.457 97.6441 36.906C97.6441 36.6754 97.8392 36.0572 98.2168 35.0578L103.79 21.1564H114.537L119.748 34.2859C119.78 34.3436 119.784 34.3628 119.844 34.5165C119.905 34.6639 119.95 34.776 119.988 34.8721C120.184 35.3653 120.321 35.7081 120.427 35.9835C120.635 36.5185 120.523 37.1463 120.078 37.5082C119.915 37.6395 119.72 37.7292 119.499 37.7292V38.1136H128.089V37.7292C126.717 37.7292 125.686 37.0277 125.015 35.6152ZM104.139 20.1282L109.123 7.57531L114.118 20.1282H104.139Z" fill="#E9E2D6"/>
<path d="M54.6966 72.1178C54.6966 71.0736 54.2679 70.1319 53.5864 69.4464C52.9081 68.7642 51.9611 68.3382 50.9277 68.3382C51.9611 68.3382 52.9081 67.9154 53.5864 67.2331C54.2679 66.5509 54.6966 65.6091 54.6966 64.5649C54.6966 66.6502 56.3826 68.3382 58.4654 68.3382C57.4224 68.3382 56.4786 68.7642 55.7971 69.4464C55.1157 70.1319 54.6966 71.0736 54.6966 72.1178Z" fill="#E9E2D6"/>
<path d="M138.257 75.0069L139.969 79.5297H139.595C139.415 79.3343 138.987 78.8827 138.312 78.178C137.39 77.2107 136.334 76.4675 135.144 75.939C133.954 75.4137 132.604 75.1543 131.11 75.1543C128.598 75.1543 126.602 75.875 125.13 77.3131C124.436 77.989 123.915 78.7321 123.543 79.5297H122.021C122.497 78.5688 123.14 77.6879 123.956 76.8775C125.911 74.9429 128.477 73.9819 131.654 73.9819C132.895 73.9819 134.223 74.1165 135.656 74.4047C137.089 74.6802 137.883 74.8692 138.056 74.9493C138.12 74.9877 138.19 75.0069 138.257 75.0069Z" fill="#E9E2D6"/>
<path d="M142 61.2593C142 62.2619 141.885 63.2164 141.648 64.1197C141.418 65.0294 141.04 65.907 140.528 66.743C140.007 67.5854 139.386 68.351 138.669 69.0396C137.943 69.7347 137.201 70.26 136.456 70.6156C135.707 70.9743 134.523 71.2434 132.911 71.4324C131.289 71.6117 130.23 71.7046 129.714 71.7046H119.896V61.0031H120.267C120.302 64.5489 121.134 67.0281 122.766 68.4246C124.4 69.8244 126.934 70.5291 130.386 70.5291C133.519 70.5291 135.892 69.7828 137.515 68.2997C139.143 66.8167 139.949 65.0326 139.949 62.9538C139.949 61.6885 139.668 60.6059 139.105 59.7154C138.535 58.8186 137.748 58.0338 136.731 57.3612C135.713 56.6853 133.79 55.8653 130.965 54.8884C128.15 53.9018 126.176 53.0402 125.031 52.2939C123.888 51.554 122.935 50.4361 122.167 48.9466C121.403 47.4636 121.022 45.9357 121.022 44.3854V44.3758C121.022 43.6551 120.433 43.0658 119.717 43.0658H119.038C117.551 43.0658 116.341 44.2829 116.341 45.782V76.4036C116.341 77.9218 117.57 79.1518 119.089 79.1518H119.163V79.5298H109.344V79.1518C110.864 79.1518 112.089 77.9218 112.089 76.4036V45.8172C112.089 45.0613 111.779 44.3758 111.286 43.8762C110.685 43.2708 109.789 42.9409 108.829 43.117C107.441 43.3701 106.474 44.6481 106.474 46.0607V79.5298L77.1236 48.6936V76.4996C77.1236 77.2364 77.4211 77.8962 77.901 78.3735C78.3745 78.8539 79.0368 79.1518 79.7662 79.1518V79.5298H73.9146L66.3833 79.533V79.1454H66.4985C67.3655 79.1454 68.1174 78.5432 68.3061 77.6976C68.6165 76.237 68.7796 74.6963 68.7796 73.1108C68.7796 63.415 62.6689 55.5226 55.0576 55.276C54.9393 55.2728 54.8177 55.2728 54.6961 55.2728C54.6033 55.2728 54.5041 55.2728 54.4114 55.276C54.3346 55.2824 54.2514 55.2824 54.1714 55.2856C54.037 55.292 53.9027 55.3016 53.7683 55.3144C53.6595 55.3208 53.5539 55.3336 53.4484 55.3464C52.7061 55.4265 51.9831 55.5867 51.276 55.8077C50.3706 56.0927 49.5036 56.4899 48.6749 56.9832C48.2206 57.2587 47.7759 57.563 47.344 57.8961C47.0849 58.0979 46.8321 58.3061 46.589 58.5239C46.509 58.5976 46.4258 58.6712 46.3458 58.7481C46.2626 58.8218 46.1826 58.9019 46.1027 58.9787C46.0227 59.0556 45.9459 59.1325 45.8691 59.2158C45.7859 59.2958 45.7027 59.3823 45.6227 59.4688C45.482 59.6161 45.3444 59.7667 45.2132 59.9204C45.1077 60.0454 44.9989 60.1703 44.8965 60.3016C44.7685 60.4586 44.6405 60.6187 44.5158 60.7821C44.3526 60.9967 44.199 61.2145 44.0487 61.4387C43.9783 61.538 43.9111 61.6341 43.8471 61.7366C43.7671 61.8583 43.6903 61.9768 43.6168 62.0953C43.476 62.3196 43.3416 62.5502 43.2136 62.7808C43.1624 62.8705 43.1113 62.9602 43.0665 63.0499C43.0377 63.1011 43.0089 63.1524 42.9833 63.2004C42.9321 63.2997 42.8841 63.399 42.8297 63.4951C42.7081 63.7353 42.593 63.982 42.481 64.2286C42.4042 64.4016 42.3242 64.5713 42.257 64.7443C42.1674 64.9525 42.0843 65.1639 42.0043 65.3753C41.9915 65.4041 41.9819 65.4298 41.9755 65.4586C41.8923 65.67 41.8155 65.891 41.7387 66.112C41.7291 66.1312 41.7259 66.1473 41.7227 66.1633C41.6492 66.3875 41.5788 66.6181 41.5116 66.8455C41.23 67.8097 41.0125 68.8122 40.8653 69.85L40.8525 69.8276C40.6957 70.8942 40.6126 71.9865 40.6126 73.1108C40.6126 74.6002 40.7597 76.0448 41.0317 77.4253C41.2268 78.4247 42.1003 79.1454 43.1177 79.1454V79.533H35.5832L21.4772 79.5298C18.6394 79.5298 16.1407 79.2223 14.0004 78.6009C11.86 77.9891 9.67804 76.8135 7.46089 75.0903C5.23094 73.367 3.4361 71.2177 2.06358 68.6521C0.68786 66.0832 0 63.4631 0 60.7725C0 57.8384 0.860625 54.9172 2.58508 51.996C4.31273 49.078 6.75703 46.7077 9.94038 44.8819C13.1237 43.0594 16.7294 42.1465 20.7606 42.1465C24.3695 42.1465 28.1895 42.9441 32.2207 44.5488L33.6444 48.7993H33.2765C31.9999 47.1593 30.3458 45.8108 28.1191 44.7282C25.9019 43.6615 23.4256 43.1202 20.6934 43.1202C15.9584 43.1202 12.0744 44.9075 9.04137 48.4854C6.00838 52.0568 4.49509 56.4995 4.49509 61.7975C4.49509 64.0012 4.74784 65.9647 5.24694 67.6879C5.75243 69.4112 6.68025 71.1152 8.05917 72.7905C9.42849 74.4657 10.9066 75.6957 12.4775 76.4964C14.0515 77.2844 15.8112 77.8353 17.7628 78.1428C19.7112 78.4471 21.2565 78.5849 22.4115 78.5528H29.402V69.5265C29.402 68.1139 28.2119 66.9897 26.801 67.0729V66.7014H36.3158V67.0729H36.0983C34.7482 67.0729 33.6444 68.1748 33.6444 69.5361V77.0057C33.6444 77.5951 33.8843 78.1332 34.2746 78.5208C34.6266 78.8667 35.0937 79.1038 35.6152 79.1454C36.2103 79.1454 36.6806 78.6585 36.6806 78.0948C36.6806 78.0083 36.6678 77.9218 36.6454 77.8321C36.2486 76.3235 36.0407 74.7411 36.0407 73.1108C36.0407 70.2824 36.6678 67.6015 37.7939 65.1959C37.8387 65.0998 37.8867 64.9973 37.9347 64.898C40.9325 58.6264 47.3312 54.299 54.7377 54.299C64.9148 54.299 73.1852 62.4765 73.3483 72.6271C73.3483 72.7873 73.3515 72.9506 73.3515 73.1108C73.3515 73.1941 73.3515 73.2837 73.3483 73.3702C73.3291 74.8629 73.134 76.3075 72.782 77.6944C72.5965 78.4311 73.1532 79.1454 73.9146 79.1454C74.3657 79.0974 74.7656 78.8859 75.0568 78.572C75.3447 78.2549 75.5239 77.8353 75.5239 77.3741V50.34C75.5239 49.1196 75.5239 47.4412 75.5207 45.9454C75.5207 45.1574 75.1975 44.4303 74.6761 43.9114C74.1578 43.3925 73.4347 43.0658 72.6381 43.0658C72.5517 43.0658 72.4685 43.0722 72.3821 43.0754C71.5951 43.0754 70.8272 43.2323 70.117 43.5302C69.4067 43.8313 68.7573 44.2733 68.2166 44.8403C64.8253 48.4053 60.039 50.6283 54.7377 50.6283C49.4364 50.6283 45.0213 48.5751 41.6556 45.2535C41.3516 44.9524 41.214 44.5744 41.214 44.2061C41.214 43.4341 41.8123 42.691 42.7113 42.691C43.2104 42.691 43.6743 42.9376 43.9463 43.3476C46.5314 47.2042 50.4026 49.6545 54.7377 49.6545C58.3434 49.6545 61.6355 47.9537 64.1246 45.1574C64.8412 44.3534 64.2718 43.0754 63.1936 43.0754V42.6974H65.9386L65.9418 42.691H69.9762C69.9762 42.691 69.9762 42.6974 69.973 42.6974H77.3219L104.897 71.6406L104.868 46.0895V45.7147C104.868 44.9844 104.574 44.3246 104.1 43.8441C103.617 43.3701 102.955 43.0658 102.226 43.0658V42.6974H124.967V43.0658C123.991 43.0658 123.274 43.8697 123.274 44.7634C123.274 44.9908 123.319 45.215 123.418 45.4425C123.565 45.782 123.745 46.1023 123.956 46.413C124.64 47.4188 126.09 48.3573 128.288 49.2285C132.06 50.5066 134.641 51.4643 136.033 52.1017C137.435 52.7455 138.772 53.8314 140.064 55.3624C141.351 56.8999 142 58.8666 142 61.2593Z" fill="#E9E2D6"/>
</g>
<defs>
<clipPath id="clip0_2006_635">
<rect width="142" height="121" fill="white"/>
</clipPath>
</defs>
</svg>
